<?xml version="1.0" standalone="no"?>
<!DOCTYPE svg PUBLIC "-//W3C//DTD SVG 20010904//EN"
 "http://www.w3.org/TR/2001/REC-SVG-20010904/DTD/svg10.dtd">
<svg version="1.0" xmlns="http://www.w3.org/2000/svg"
 width="300.000000pt" height="350.000000pt" viewBox="0 0 300.000000 350.000000"
 preserveAspectRatio="xMidYMid meet">

<g transform="translate(0.000000,350.000000) scale(0.100000,-0.100000)"
fill="#ffffff" stroke="none">
<path d="M1370 3343 c-99 -17 -281 -85 -267 -100 3 -3 36 6 74 20 37 14 100
36 138 48 39 13 74 27 80 31 5 4 7 7 5 7 -3 -1 -16 -4 -30 -6z"/>
<path d="M1378 3324 c-41 -12 -13 -22 61 -22 64 0 89 -4 140 -27 33 -15 61
-32 61 -36 0 -13 -14 -11 -36 6 -19 15 -64 21 -64 8 0 -3 7 -15 17 -25 15 -17
14 -17 -39 1 -69 24 -143 37 -134 23 3 -5 26 -15 51 -21 25 -6 45 -12 45 -14
0 -1 -39 -1 -87 1 -49 2 -99 -1 -113 -7 -20 -8 -6 -10 63 -10 101 -1 136 -14
187 -66 39 -40 46 -42 80 -15 22 17 23 22 12 40 -12 19 -11 20 6 11 22 -12 60
-4 83 16 9 8 26 15 38 16 11 1 21 4 21 8 0 9 86 38 160 55 l55 12 -57 1 c-31
1 -83 -7 -117 -18 -48 -15 -63 -16 -71 -6 -6 7 -37 25 -70 39 -51 23 -78 28
-168 31 -59 2 -115 2 -124 -1z m312 -106 c0 -5 -9 -4 -20 2 -11 6 -20 12 -20
14 0 2 9 2 20 -1 11 -3 20 -9 20 -15z"/>
<path d="M1150 3229 c-41 -23 -95 -56 -120 -74 -45 -33 -94 -82 -75 -74 18 7
275 179 275 184 0 7 0 8 -80 -36z"/>
<path d="M1898 3241 c-27 -4 -52 -11 -57 -16 -7 -7 40 -9 126 -6 156 4 229 -8
323 -50 133 -61 187 -150 238 -399 20 -94 20 -97 2 -245 -34 -271 -32 -248
-16 -185 8 30 20 100 26 155 7 55 18 118 25 140 9 28 10 55 5 90 -13 74 -12
121 1 108 13 -13 27 -212 22 -323 -7 -150 -61 -410 -85 -410 -9 0 -6 24 18
143 18 90 16 95 -8 22 -22 -68 -67 -277 -68 -314 0 -13 -3 -22 -6 -18 -7 7 13
194 26 246 5 19 6 40 2 48 -5 8 -16 -35 -27 -102 -10 -63 -22 -115 -27 -115
-5 0 -7 8 -4 18 2 9 7 53 11 97 4 44 9 91 12 105 3 14 2 22 -2 17 -5 -4 -14
-35 -22 -70 l-13 -62 5 60 c3 47 1 56 -7 41 -6 -11 -12 -29 -13 -40 -1 -12 -3
-24 -4 -28 0 -5 -8 -8 -16 -8 -8 0 -16 -6 -16 -12 -1 -7 -3 -22 -5 -33 -7 -34
-12 -77 -20 -157 -8 -87 -23 -107 -18 -25 l3 52 -9 -45 c-11 -58 -11 -219 0
-245 7 -17 9 -14 11 15 1 27 3 22 10 -24 5 -35 20 -77 39 -108 17 -27 27 -54
24 -60 -4 -6 -3 -8 3 -5 9 6 65 -67 93 -122 12 -24 7 -33 -25 -44 -16 -6 12
-33 77 -77 62 -41 90 -52 69 -26 -10 11 -8 15 6 18 13 3 6 10 -27 28 -36 20
-51 38 -78 90 l-33 66 20 44 c24 52 26 102 9 201 -15 91 1 215 48 388 55 199
62 246 69 437 9 246 -14 430 -56 441 -10 3 -22 23 -29 48 -17 61 -90 150 -148
179 -98 50 -210 77 -327 81 -60 2 -131 0 -157 -4z m473 -1138 c-8 -15 -10 -15
-11 -2 0 17 10 32 18 25 2 -3 -1 -13 -7 -23z m24 -77 c-5 -47 -14 -88 -18 -93
-5 -4 -6 3 -3 17 3 14 8 55 11 93 4 37 10 67 13 67 4 0 3 -38 -3 -84z m22 -78
c-2 -13 -4 -5 -4 17 -1 22 1 32 4 23 2 -10 2 -28 0 -40z m-40 -100 c-2 -13 -4
-3 -4 22 0 25 2 35 4 23 2 -13 2 -33 0 -45z m60 10 c-3 -8 -6 -5 -6 6 -1 11 2
17 5 13 3 -3 4 -12 1 -19z m-121 -35 c-10 -10 -19 5 -10 18 6 11 8 11 12 0 2
-7 1 -15 -2 -18z m4 -33 c0 -5 -4 -10 -10 -10 -5 0 -10 5 -10 10 0 6 5 10 10
10 6 0 10 -4 10 -10z m57 -32 c-3 -8 -6 -5 -6 6 -1 11 2 17 5 13 3 -3 4 -12 1
-19z m-57 -14 c0 -8 -5 -12 -10 -9 -6 4 -8 11 -5 16 9 14 15 11 15 -7z"/>
<path d="M1005 3163 c-22 -19 -31 -30 -20 -24 27 14 69 51 64 55 -2 2 -22 -12
-44 -31z"/>
<path d="M1303 3183 c-18 -2 -33 -9 -33 -15 0 -7 17 -8 49 -4 60 8 92 -4 153
-55 49 -41 62 -46 73 -28 9 14 -31 57 -76 79 -39 20 -114 31 -166 23z"/>
<path d="M1684 3130 c-56 -46 -123 -125 -113 -134 2 -2 15 4 28 15 13 10 19
19 15 19 -5 0 25 34 66 75 41 41 72 75 70 75 -3 0 -33 -23 -66 -50z"/>
<path d="M1137 3155 c-53 -11 -87 -28 -87 -46 0 -5 20 0 45 11 62 27 129 27
197 1 32 -12 60 -26 63 -32 7 -10 -23 -1 -41 12 -6 5 -34 10 -62 11 -29 1 -52
6 -52 11 0 6 -5 6 -12 0 -7 -5 -38 -15 -67 -23 -53 -12 -137 -55 -174 -88 -33
-29 -44 -67 -42 -138 2 -38 -2 -75 -7 -82 -8 -9 -7 -11 6 -6 26 10 19 -19 -10
-45 -14 -12 -23 -25 -20 -28 3 -3 14 5 25 18 15 18 20 20 21 8 0 -9 -3 -19 -7
-23 -5 -4 -8 -11 -9 -14 0 -4 -4 -23 -8 -42 -3 -19 -8 -50 -10 -68 -2 -19 -11
-41 -21 -50 -16 -16 -17 -15 -10 18 9 45 25 100 36 123 5 10 5 17 0 17 -11 0
-35 -75 -56 -175 -19 -92 -18 -182 2 -278 13 -59 13 -72 -1 -115 -30 -92 -54
-228 -60 -344 -10 -181 -37 -259 -101 -300 -27 -18 -28 -19 -5 -13 24 7 24 6
6 -7 -18 -14 -18 -15 10 -22 29 -8 37 -2 71 50 25 38 2 -18 -26 -63 -22 -37
-31 -43 -61 -43 -32 -1 -33 -2 -17 -15 11 -7 38 -17 60 -21 34 -5 38 -8 22
-14 -11 -4 -36 -5 -55 -3 -34 4 -34 4 -15 -12 15 -12 36 -15 78 -13 31 2 57 0
57 -3 0 -11 -51 -29 -80 -29 -17 0 -30 -4 -30 -10 0 -10 25 -18 75 -22 l30 -3
-30 -17 c-26 -14 -28 -17 -12 -23 10 -4 31 -5 47 -1 27 5 30 3 25 -17 -5 -24
-28 -282 -29 -332 -1 -16 -5 -36 -10 -44 -6 -10 -6 -16 2 -19 7 -2 9 -8 6 -14
-9 -15 -10 -138 -1 -138 4 0 7 -11 7 -25 0 -14 5 -25 10 -25 6 0 10 -12 10
-26 0 -16 4 -23 12 -18 7 5 8 3 3 -5 -4 -8 1 -18 13 -27 13 -9 18 -21 15 -34
-3 -12 0 -20 7 -20 7 0 9 -8 5 -21 -5 -15 -2 -22 13 -26 20 -5 42 -42 42 -70
0 -15 2 -14 14 2 13 17 14 16 26 -17 9 -23 18 -34 27 -31 8 3 13 -2 13 -14 0
-11 6 -20 13 -20 6 -1 39 -8 72 -17 32 -9 72 -16 87 -16 15 0 28 -3 27 -7 -1
-15 -180 -168 -227 -195 l-47 -28 37 0 c28 0 48 10 93 46 l57 46 -21 -40 c-29
-58 -26 -66 5 -12 29 51 112 133 125 124 5 -3 1 -13 -10 -22 -23 -20 -85 -132
-77 -140 3 -3 26 14 51 37 24 22 48 41 53 41 15 0 11 -44 -5 -62 -9 -10 -11
-18 -5 -18 6 0 14 5 18 11 4 8 9 7 15 -2 6 -11 15 -7 39 16 20 19 30 24 30 14
0 -8 -4 -19 -9 -25 -6 -5 2 -10 22 -10 27 -2 39 7 82 56 28 31 58 60 68 63 23
7 21 -3 -5 -28 -35 -32 -96 -102 -70 -81 20 17 27 15 23 -7 -1 -4 8 -2 19 5
16 10 22 10 28 1 5 -8 23 4 57 40 78 81 86 99 14 29 -36 -34 -68 -59 -72 -55
-4 4 21 36 55 72 l63 66 -70 -67 c-99 -96 -116 -85 -20 12 44 44 77 80 74 80
-3 0 -20 -14 -38 -30 -18 -17 -37 -28 -43 -24 -8 5 -5 12 10 22 12 8 22 18 22
23 0 5 -11 2 -25 -7 -14 -9 -28 -14 -31 -11 -3 3 8 13 25 22 17 8 31 12 31 8
0 -4 19 12 43 34 23 23 58 49 77 57 25 11 29 15 15 16 -19 1 -19 1 -2 14 27
20 20 29 -8 10 -14 -9 -28 -14 -32 -10 -3 3 -11 2 -17 -3 -6 -4 -20 -11 -31
-15 l-20 -7 20 20 c11 11 29 22 40 23 11 2 38 17 60 33 22 16 42 30 44 32 2 2
2 6 -2 9 -3 4 -20 -5 -37 -20 -17 -14 -35 -26 -38 -27 -27 -3 -46 -10 -69 -24
-14 -9 -24 -12 -21 -5 6 18 68 54 68 40 0 -7 20 6 45 29 41 37 75 55 60 31
-10 -16 1 -11 16 7 12 14 12 16 -1 9 -8 -5 -1 4 15 18 22 19 25 24 10 19 -16
-5 -15 0 10 28 l30 34 -32 -29 c-18 -16 -30 -32 -28 -37 3 -4 -4 -5 -15 -2
-12 3 -20 1 -18 -4 5 -17 -83 -96 -94 -85 -6 6 6 21 36 41 25 18 46 39 46 47
0 9 -21 -3 -55 -31 -55 -45 -72 -54 -60 -35 8 12 8 12 -33 1 -18 -6 -30 -6
-27 -1 4 7 47 21 75 25 3 0 26 15 52 33 26 17 50 32 53 32 4 0 19 10 33 22 21
16 22 20 7 14 -11 -3 3 14 30 39 l50 46 -45 -27 c-59 -37 -91 -65 -84 -76 3
-5 2 -8 -3 -7 -4 2 -20 -4 -36 -11 -15 -7 -30 -10 -34 -7 -8 9 28 36 42 31 5
-2 32 19 60 46 27 28 53 50 57 50 4 0 21 20 39 45 18 25 34 43 36 41 2 -2 -3
-73 -11 -157 -19 -193 -30 -501 -15 -419 6 30 10 71 9 90 l-1 35 41 -45 c32
-35 39 -40 34 -22 -11 42 27 21 60 -33 24 -39 31 -61 31 -102 0 -29 3 -53 7
-53 12 0 20 40 13 70 l-7 30 58 -21 c32 -12 80 -35 107 -51 28 -16 58 -28 69
-26 12 2 -29 28 -108 68 -113 58 -131 70 -156 111 -21 33 -38 49 -58 52 -16 4
-39 21 -53 39 l-26 33 10 145 c10 163 27 314 39 345 5 11 7 -14 5 -60 -2 -44
-2 -69 1 -55 3 14 10 30 15 35 7 7 8 4 4 -6 -4 -10 -2 -20 4 -24 7 -4 11 5 11
22 0 15 5 35 10 43 7 11 10 3 11 -30 2 -42 2 -40 13 24 l11 69 23 -56 c13 -32
28 -59 33 -63 5 -3 6 2 3 10 -3 9 -2 16 4 16 5 0 13 -8 16 -17 14 -36 25 7 27
106 1 79 5 108 17 122 19 22 34 25 26 5 -3 -7 2 -38 11 -67 26 -85 27 -87 32
-66 5 18 5 18 19 0 8 -10 1 10 -15 44 -18 41 -29 80 -30 114 0 28 -5 57 -11
64 -6 7 -7 16 -3 18 5 3 17 -16 27 -41 10 -26 29 -69 41 -97 12 -27 25 -60 29
-72 4 -11 14 -27 23 -35 15 -11 16 -11 9 7 -4 11 -10 46 -12 77 -2 31 -10 72
-19 90 l-15 33 6 -40 c3 -22 7 -51 10 -65 4 -22 3 -22 -10 5 -9 17 -15 41 -16
56 0 14 -4 29 -9 35 -14 15 -23 54 -12 54 5 0 13 -9 16 -21 4 -11 13 -18 20
-16 16 7 27 -18 51 -110 10 -39 22 -69 26 -67 15 9 8 69 -17 138 -13 39 -23
72 -21 74 3 2 20 -20 39 -50 49 -78 73 -91 32 -18 -44 78 -44 85 0 26 37 -48
53 -60 35 -27 -16 31 -12 36 12 15 27 -24 16 -3 -28 51 -18 23 -40 54 -48 70
-21 41 -46 42 -46 2 0 -18 -4 -27 -9 -21 -16 17 -75 236 -85 319 -2 17 -13 80
-25 140 -43 225 -44 320 -6 545 51 300 60 502 31 680 -21 124 -41 174 -96 240
-58 70 -125 100 -226 103 -71 2 -86 -2 -152 -32 -39 -19 -77 -40 -83 -47 -18
-22 5 -17 78 17 36 17 81 33 99 36 42 7 126 -5 119 -18 -3 -5 1 -6 9 -3 14 5
76 -24 76 -36 0 -4 8 -15 18 -26 10 -11 27 -32 37 -48 19 -29 19 -29 -1 -18
-11 6 -27 18 -34 27 -19 23 -56 40 -120 56 -60 14 -179 19 -195 8 -6 -4 -22
-9 -35 -11 -38 -6 -92 -37 -84 -50 4 -6 24 -8 52 -4 41 6 43 5 31 -12 -13 -16
-13 -16 7 1 31 26 52 22 28 -5 l-19 -22 27 20 c29 22 94 22 81 0 -4 -7 -1 -6
9 1 12 10 25 10 64 -2 27 -8 56 -19 64 -25 19 -12 8 -13 -24 0 -20 7 -24 6
-20 -5 3 -8 13 -17 22 -20 10 -2 35 -20 57 -39 37 -33 39 -37 26 -58 -10 -18
-10 -20 0 -10 18 17 32 15 25 -4 -3 -8 -2 -13 3 -10 5 3 16 -5 25 -19 9 -14
13 -25 9 -25 -5 0 -1 -5 7 -10 12 -7 11 -13 -10 -37 -22 -24 -22 -25 -2 -9 12
11 22 17 23 15 9 -56 7 -66 -29 -104 -31 -34 -32 -35 -5 -11 40 36 51 30 21
-10 -12 -16 -15 -23 -8 -16 8 6 18 12 22 12 17 0 7 -21 -29 -62 -33 -38 -34
-40 -5 -14 47 43 52 23 6 -27 l-39 -42 38 34 c37 35 53 26 20 -11 -16 -18 -16
-18 0 -12 26 10 21 -16 -10 -50 l-28 -31 33 29 c58 53 35 5 -30 -64 l-63 -65
63 60 c72 69 85 54 15 -17 -58 -59 -52 -64 7 -5 l44 42 7 -30 c6 -22 4 -34 -9
-49 -15 -18 -15 -19 0 -8 14 11 17 10 22 -5 5 -17 -2 81 -10 142 -2 17 -6 61
-9 99 -5 74 4 86 11 14 3 -24 9 -59 13 -78 8 -33 9 -31 11 25 l3 60 8 -80 c8
-79 0 -205 -23 -330 -28 -158 -34 -287 -19 -412 14 -125 11 -173 -13 -173 -8
0 -16 -17 -20 -48 -4 -32 -13 -51 -27 -60 -16 -10 -20 -22 -18 -52 2 -22 0
-42 -3 -46 -4 -3 -4 -12 -2 -19 3 -7 0 -16 -6 -20 -9 -6 -11 4 -8 34 2 22 1
41 -2 41 -3 0 -30 -26 -60 -57 l-55 -58 53 50 c31 30 52 43 52 34 0 -8 -4 -19
-10 -25 -5 -5 -10 -40 -11 -77 -1 -37 -6 -70 -11 -73 -5 -3 -6 20 -3 55 6 64
3 71 -21 46 -9 -8 -11 -15 -5 -15 6 0 11 -7 11 -16 0 -11 -6 -13 -19 -9 -16 5
-20 -1 -26 -37 -4 -24 -7 -55 -7 -70 0 -15 -3 -30 -8 -33 -11 -7 -7 105 5 126
6 11 4 10 -9 -2 -11 -10 -18 -36 -20 -82 -2 -37 -10 -74 -16 -82 -9 -11 -9
-15 -1 -15 21 0 11 -17 -39 -69 -52 -54 -69 -82 -25 -41 20 19 25 20 25 7 0
-9 -8 -22 -17 -29 -10 -7 -29 -27 -43 -43 -41 -48 6 -8 97 84 45 46 86 81 90
78 3 -4 -43 -57 -103 -117 -60 -61 -111 -116 -113 -122 -2 -6 37 30 87 81 81
82 112 105 112 84 0 -4 -21 -27 -47 -50 -26 -24 -44 -45 -40 -49 3 -3 17 7 31
22 13 16 28 26 32 22 4 -5 0 -16 -8 -25 -9 -10 -13 -24 -11 -30 3 -7 0 -13 -7
-13 -6 0 -9 -4 -5 -9 3 -5 -4 -16 -15 -24 -11 -7 -17 -17 -13 -21 4 -3 -3 -13
-15 -22 -12 -8 -20 -20 -17 -25 4 -5 -3 -9 -14 -9 -18 0 -19 3 -11 26 15 38
13 38 -20 1 -20 -24 -30 -45 -30 -68 -1 -28 -2 -31 -11 -16 -15 26 -29 11 -30
-31 l-1 -37 -9 33 c-13 42 -22 41 -17 -3 2 -19 0 -35 -4 -35 -4 0 -8 15 -8 34
0 19 -5 38 -10 41 -8 5 -9 -11 -5 -47 5 -39 4 -49 -4 -38 -6 8 -11 25 -11 37
0 12 -5 25 -11 29 -11 6 -9 -13 7 -81 5 -18 4 -18 -6 -2 -6 9 -14 39 -17 65
-3 26 -7 49 -9 51 -2 2 4 14 13 25 17 20 17 20 1 7 -16 -12 -18 -10 -18 22 0
24 9 46 27 69 21 25 22 28 5 14 -28 -25 -28 -7 0 30 14 18 16 24 5 15 -15 -12
-16 -9 -11 45 9 101 12 274 4 269 -5 -3 -11 1 -13 7 -3 7 -3 -33 -1 -89 2 -56
1 -109 -2 -118 -9 -24 -22 -18 -27 13 -2 15 -5 -3 -6 -40 0 -37 -4 -69 -8 -71
-5 -3 -7 33 -5 80 2 52 0 83 -6 79 -5 -3 -12 8 -16 25 -3 17 -10 28 -16 24 -6
-4 -10 5 -10 21 0 40 -13 20 -26 -39 l-12 -52 -2 55 c-1 41 -4 50 -10 35 -8
-18 -9 -18 -9 5 -1 18 -4 21 -10 12 -6 -10 -10 -8 -14 9 -4 13 -9 21 -12 17
-11 -11 30 -134 55 -162 l25 -28 6 33 c6 33 6 33 8 -9 0 -24 7 -55 15 -70 14
-28 12 -134 -3 -140 -4 -1 -5 -19 -3 -40 2 -28 1 -33 -7 -22 -6 8 -11 23 -11
33 0 9 -4 17 -9 17 -6 0 -5 -13 1 -32 5 -18 12 -44 15 -58 8 -37 -12 -13 -27
32 -6 21 -16 38 -21 38 -12 0 -12 -1 7 -45 8 -20 14 -47 12 -59 -3 -15 -9 -7
-23 31 -11 29 -24 53 -28 53 -5 0 -6 -8 -2 -17 15 -37 15 -57 1 -24 -9 18 -16
40 -16 48 0 8 -4 12 -10 8 -5 -3 -7 -13 -4 -23 2 -9 -1 -7 -7 6 -7 12 -16 22
-21 22 -5 0 -6 -6 -2 -12 4 -8 0 -7 -12 2 -34 27 -84 51 -84 41 0 -5 8 -12 19
-16 31 -10 89 -72 96 -105 4 -16 11 -30 16 -30 6 0 7 -4 4 -10 -3 -5 -2 -10 3
-10 13 0 21 -60 12 -85 -8 -21 -8 -22 -25 60 -5 23 -7 24 -20 11 -12 -11 -12
-21 -4 -46 6 -17 9 -34 5 -37 -3 -3 -8 3 -12 13 -3 10 -10 28 -15 39 -8 18 -9
17 -5 -5 2 -14 7 -40 11 -57 5 -21 4 -33 -3 -33 -5 0 -15 21 -21 48 l-10 47 5
-52 c2 -29 2 -53 -1 -53 -13 0 -35 29 -35 46 0 10 -2 15 -5 12 -5 -5 10 -136
21 -178 5 -19 4 -22 -5 -14 -7 7 -15 39 -18 73 -4 37 -12 66 -21 73 -13 11
-15 10 -9 -11 4 -18 3 -21 -6 -12 -6 6 -17 11 -25 11 -11 0 -13 -16 -10 -70 2
-42 -1 -69 -7 -67 -5 2 -9 36 -8 75 1 43 -2 70 -8 67 -5 -4 -9 -13 -9 -21 0
-13 -2 -14 -14 -1 -11 11 -12 23 -5 57 5 23 8 45 5 47 -2 3 -9 -21 -16 -51 -6
-31 -13 -56 -16 -56 -2 0 -2 30 0 67 4 74 -5 67 -24 -19 -7 -32 -17 -58 -22
-58 -9 0 -8 5 13 98 14 66 6 80 -10 16 -15 -58 -25 -52 -12 7 10 44 7 68 -5
33 -3 -10 -10 -28 -14 -39 -8 -17 -9 -17 -6 5 3 14 7 34 11 45 7 20 6 20 -9 1
-20 -25 -21 -4 0 37 l15 32 -20 -25 c-29 -36 -26 -12 4 33 14 20 23 37 19 37
-13 0 20 32 63 61 24 17 69 37 101 45 38 10 68 26 89 47 l33 32 -35 2 c-19 2
-35 -2 -35 -7 0 -6 -11 -3 -24 5 -22 15 -24 14 -29 -6 -5 -20 -7 -20 -22 -5
-23 22 -35 20 -36 -6 0 -23 0 -23 -9 -2 -9 23 -50 40 -50 21 0 -8 -3 -8 -8 1
-6 9 -16 3 -38 -20 -23 -26 -24 -28 -3 -10 l25 22 30 -31 29 -31 -30 -25 c-74
-62 -155 -145 -155 -158 0 -8 -4 -15 -9 -15 -5 0 -4 19 2 42 8 31 7 43 -1 46
-7 2 -12 12 -12 23 0 10 -5 19 -12 19 -9 0 -9 3 0 12 7 7 12 17 12 22 0 6 -5
4 -10 -4 -8 -12 -10 -11 -10 8 0 12 -6 25 -14 28 -9 3 -12 12 -9 21 4 10 2 14
-5 9 -14 -9 -35 -111 -27 -135 3 -11 3 -37 -1 -58 l-8 -38 -8 35 c-4 20 -3 63
4 102 9 56 9 71 -4 90 -20 31 -21 75 -5 273 7 94 14 285 15 425 2 140 7 291
12 335 5 44 14 121 19 172 6 50 14 100 19 110 6 10 17 63 26 118 34 204 40
232 67 327 52 185 140 302 300 403 l90 58 31 -29 c20 -19 32 -25 35 -16 6 17
23 15 23 -3 0 -17 16 -20 25 -5 11 18 -26 71 -83 115 -31 25 -63 45 -70 45 -7
0 -10 5 -6 12 4 7 3 8 -4 4 -6 -4 -31 -2 -54 5 -60 16 -88 17 -151 4z m13 -65
c0 -5 -10 -10 -22 -9 -22 0 -22 1 -3 9 11 5 21 9 23 9 1 1 2 -3 2 -9z m-60
-20 c-8 -5 -19 -10 -25 -10 -5 0 -3 5 5 10 8 5 20 10 25 10 6 0 3 -5 -5 -10z
m772 -64 c18 -2 41 -4 51 -5 10 0 16 -5 13 -10 -4 -5 2 -7 12 -4 10 2 31 -7
47 -21 17 -14 33 -26 36 -26 4 0 18 -15 33 -34 l26 -35 -50 34 c-45 30 -146
75 -170 75 -6 0 -10 3 -10 8 0 4 -16 8 -35 8 -60 2 -71 6 -40 13 17 4 35 5 42
3 6 -2 27 -5 45 -6z m-915 -113 c-5 -35 -13 -63 -16 -63 -4 0 -7 24 -7 53 0
36 5 56 15 64 9 6 17 11 17 10 1 -1 -3 -30 -9 -64z m102 25 c-31 -60 -41 -101
-28 -109 8 -4 6 -15 -6 -33 -9 -14 -21 -24 -25 -21 -7 4 -14 -10 -40 -82 -5
-16 -11 -46 -14 -68 -11 -101 -19 -145 -26 -145 -4 0 -7 -48 -8 -107 0 -60 -5
-124 -10 -143 l-8 -35 -17 35 c-23 50 -31 164 -12 180 13 11 15 7 16 -26 0
-22 4 -59 8 -84 6 -33 8 -18 6 60 -2 128 7 227 19 220 9 -5 36 110 37 155 0
11 8 28 17 40 14 16 14 17 1 7 -23 -18 -32 -2 -12 22 17 20 17 20 1 7 -16 -12
-18 -11 -18 8 0 12 4 20 9 16 5 -3 12 3 16 14 4 13 12 17 24 14 15 -4 24 5 37
34 20 43 44 83 50 83 3 0 -5 -19 -17 -42z m-66 -28 c-3 -12 -8 -19 -11 -16 -5
6 5 36 12 36 2 0 2 -9 -1 -20z m98 -3 c-10 -9 -11 -8 -5 6 3 10 9 15 12 12 3
-3 0 -11 -7 -18z m1061 -122 c11 -42 6 -40 -26 12 -26 44 -27 46 -5 31 13 -8
26 -28 31 -43z m-42 -15 c6 -11 8 -20 6 -20 -3 0 -10 9 -16 20 -6 11 -8 20 -6
20 3 0 10 -9 16 -20z m69 -180 c-1 -33 -1 -32 -13 15 -7 28 -18 63 -25 78 -19
49 -10 44 15 -8 13 -27 23 -66 23 -85z m-1262 18 c-3 -8 -6 -5 -6 6 -1 11 2
17 5 13 3 -3 4 -12 1 -19z m46 -38 c-3 -11 -7 -20 -9 -20 -2 0 -4 9 -4 20 0
11 4 20 9 20 5 0 7 -9 4 -20z m-79 -52 c-4 -24 -13 -50 -21 -58 -12 -13 -14
-10 -9 28 4 37 20 72 32 72 2 0 1 -19 -2 -42z m-18 -96 c-14 -14 -16 -14 -16
-1 0 20 23 44 29 28 2 -6 -4 -18 -13 -27z m-10 -325 c-9 -35 -21 -111 -26
-168 -21 -227 -33 -305 -51 -341 -25 -49 -32 -49 -15 0 19 54 36 169 36 245 0
35 5 90 11 123 14 81 50 216 56 210 3 -3 -2 -34 -11 -69z m-26 -454 c0 -5 -5
-15 -10 -23 -8 -12 -10 -11 -10 8 0 12 5 22 10 22 6 0 10 -3 10 -7z m1293
-225 c-3 -18 -12 -40 -21 -48 -13 -13 -14 -13 -6 0 9 16 10 21 12 58 1 12 6
22 12 22 5 0 7 -14 3 -32z m33 -48 l-21 -25 21 18 c21 17 21 17 28 -13 6 -34
-16 -80 -40 -80 -8 0 -35 -21 -59 -47 -47 -51 -52 -50 -34 7 5 19 12 43 14 54
5 23 15 34 15 16 0 -10 3 -10 15 0 8 7 15 17 15 22 0 5 12 35 27 66 24 53 27
55 33 32 5 -18 1 -32 -14 -50z m-143 -165 c-3 -9 -8 -14 -10 -11 -3 3 -2 9 2
15 9 16 15 13 8 -4z m-62 -39 c-9 -11 -9 -15 1 -19 10 -3 9 -9 -4 -22 -16 -17
-17 -16 -16 16 1 36 19 71 26 50 2 -7 -1 -18 -7 -25z m-18 -99 c-49 -47 -77
-56 -32 -12 65 67 74 75 77 66 2 -5 -19 -29 -45 -54z m227 53 c0 -5 -4 -10
-10 -10 -5 0 -10 5 -10 10 0 6 5 10 10 10 6 0 10 -4 10 -10z m-25 -70 c1 -3 8
-17 15 -33 10 -21 11 -30 2 -39 -17 -17 -27 -1 -12 17 11 13 10 14 -4 9 -12
-5 -16 -1 -15 17 1 13 -1 38 -5 54 -6 29 -6 29 5 5 7 -14 13 -27 14 -30z m35
40 c0 -5 -4 -10 -10 -10 -5 0 -10 5 -10 10 0 6 5 10 10 10 6 0 10 -4 10 -10z
m100 -21 c0 -5 -4 -9 -10 -9 -5 0 -10 7 -10 16 0 8 5 12 10 9 6 -3 10 -10 10
-16z m-300 3 c0 -5 -20 -31 -45 -58 -25 -27 -45 -42 -45 -34 0 7 19 33 43 56
46 47 47 48 47 36z m126 -59 c-3 -7 -2 -13 3 -13 12 0 21 -41 13 -56 -5 -10
-11 -9 -26 2 -16 11 -17 17 -8 26 15 15 16 31 0 22 -7 -5 -8 -3 -3 6 4 7 8 27
7 44 0 30 0 30 9 7 5 -14 7 -31 5 -38z m-59 -105 c-16 -10 -26 -1 -22 20 2 9
4 37 5 62 l2 45 13 -60 c10 -44 10 -62 2 -67z m-182 32 c-10 -11 -22 -17 -27
-14 -5 3 1 17 14 31 26 28 39 12 13 -17z m131 -56 c-4 -9 -9 -15 -11 -12 -3 3
-3 13 1 22 4 9 9 15 11 12 3 -3 3 -13 -1 -22z m-421 -71 c-2 -16 -7 -49 -10
-76 -4 -26 -10 -45 -15 -42 -13 8 5 145 20 145 5 0 8 -12 5 -27z m-381 -16
c-3 -9 -22 -26 -42 -37 l-37 -21 40 39 c42 42 49 45 39 19z m-132 -124 c-45
-63 -72 -87 -72 -64 0 9 108 131 116 131 2 0 -17 -30 -44 -67z m720 21 c-3
-18 -7 -22 -13 -13 -4 7 -3 19 3 26 15 18 16 17 10 -13z m-881 -89 c-6 -43 -9
-50 -10 -25 -1 41 12 122 16 100 2 -8 -1 -42 -6 -75z m529 30 c0 -5 -5 -3 -10
5 -5 8 -10 20 -10 25 0 6 5 3 10 -5 5 -8 10 -19 10 -25z m159 -64 c1 -50 -8
-33 -14 25 -3 34 -2 43 5 29 5 -11 9 -35 9 -54z m-643 -25 c3 -13 4 -35 1 -47
-4 -22 -4 -22 -6 4 0 15 -5 27 -11 27 -5 0 -10 9 -10 20 0 28 18 25 26 -4z
m536 2 c-7 -7 -12 -8 -12 -2 0 14 12 26 19 19 2 -3 -1 -11 -7 -17z m84 -36
c-11 -10 -15 4 -8 28 l7 25 3 -23 c2 -13 1 -26 -2 -30z m-596 -17 c-6 -30 -8
-33 -9 -13 -1 25 8 62 14 56 2 -2 -1 -21 -5 -43z m38 -58 c3 46 17 48 20 2 2
-27 -2 -39 -11 -39 -22 0 -37 22 -37 55 0 52 15 51 21 -2 4 -35 6 -39 7 -16z
m542 28 c0 -25 -18 -25 -22 -1 -4 17 -1 23 9 19 7 -3 13 -11 13 -18z m-45 -17
c-4 -45 -6 -47 -14 -18 -8 27 -4 50 9 50 4 0 6 -15 5 -32z m-428 -30 c-3 -7
-5 -2 -5 12 0 14 2 19 5 13 2 -7 2 -19 0 -25z m333 -55 l-8 -28 -1 30 c-1 17
-4 41 -7 55 -6 25 -6 25 9 -2 11 -19 13 -36 7 -55z m67 57 c-1 -11 -5 -20 -9
-20 -4 0 -8 9 -8 20 0 11 4 20 9 20 6 0 9 -9 8 -20z m-29 -20 c-1 -31 -18 -32
-18 -1 0 15 8 31 16 31 1 0 2 -13 2 -30z m125 -11 c-12 -13 -28 -19 -37 -16
-18 7 -22 27 -5 27 5 0 7 -6 3 -12 -4 -7 2 -5 12 5 10 9 25 17 33 17 12 0 10
-5 -6 -21z m-295 -64 c0 -38 -1 -39 -8 -10 -4 17 -8 44 -8 60 -1 25 1 27 8 10
5 -11 8 -38 8 -60z m-207 12 c-7 -7 -9 -1 -7 19 5 40 8 43 13 15 3 -13 0 -28
-6 -34z m42 -36 c10 -11 9 -13 -3 -9 -10 3 -15 20 -16 54 -1 41 -1 43 3 9 3
-22 10 -46 16 -54z m134 47 c-3 -7 -5 -2 -5 12 0 14 2 19 5 13 2 -7 2 -19 0
-25z m139 10 c-3 -13 -6 -30 -6 -38 -1 -9 -5 -6 -10 8 -10 24 -4 52 12 52 6 0
8 -10 4 -22z m-36 -39 c0 -18 -4 -28 -10 -24 -5 3 -10 20 -10 36 0 18 4 28 10
24 6 -3 10 -20 10 -36z m180 -12 c-28 -27 -54 -46 -58 -42 -4 3 1 12 11 19 23
18 21 25 -5 19 -13 -3 -21 -3 -18 0 3 3 21 9 40 12 36 6 44 11 46 26 2 15 3
16 19 16 9 0 -5 -21 -35 -50z m-50 33 c0 -5 -5 -10 -11 -10 -5 0 -7 5 -4 10 3
6 8 10 11 10 2 0 4 -4 4 -10z m45 0 c-3 -5 -13 -10 -21 -10 -8 0 -12 5 -9 10
3 6 13 10 21 10 8 0 12 -4 9 -10z m-338 -42 c-3 -7 -5 -2 -5 12 0 14 2 19 5
13 2 -7 2 -19 0 -25z m383 2 c-14 -11 -31 -20 -39 -20 -17 0 -11 7 26 30 36
22 45 14 13 -10z m86 5 c-11 -8 -25 -15 -30 -15 -6 1 0 7 14 15 32 19 40 18
16 0z m-56 -15 c0 -9 -32 -30 -46 -30 -4 0 1 9 11 20 19 21 35 26 35 10z
m-180 -10 c0 -5 -4 -10 -10 -10 -5 0 -10 5 -10 10 0 6 5 10 10 10 6 0 10 -4
10 -10z m40 0 c0 -5 -7 -10 -16 -10 -8 0 -12 5 -9 10 3 6 10 10 16 10 5 0 9
-4 9 -10z m145 -30 c-10 -11 -26 -20 -34 -18 -9 1 -27 -4 -39 -11 -13 -7 -27
-10 -30 -6 -3 3 4 8 16 12 12 3 22 10 22 15 0 6 6 8 13 5 7 -3 21 1 32 9 28
21 41 17 20 -6z m-90 0 c-27 -12 -43 -12 -25 0 8 5 22 9 30 9 10 0 8 -3 -5 -9z
m-179 -16 c23 1 30 -2 27 -11 -7 -19 8 -16 23 4 7 10 16 15 20 11 4 -4 1 -14
-5 -22 -10 -12 -8 -13 10 -9 15 4 20 3 15 -6 -7 -11 -50 -11 -62 1 -3 4 -12 4
-19 2 -15 -6 -78 30 -68 39 3 4 11 3 17 -2 6 -5 25 -8 42 -7z m121 -1 c-9 -9
-20 -13 -24 -9 -4 4 -1 11 7 16 25 16 35 11 17 -7z m23 -22 c0 -13 -28 -22
-35 -11 -3 4 1 11 7 13 20 8 28 8 28 -2z m-162 -17 c12 -8 27 -12 32 -9 21 13
8 -11 -20 -39 -17 -16 -33 -26 -37 -22 -5 4 3 17 17 28 14 12 20 23 14 25 -6
2 -20 10 -30 18 -26 20 -4 19 24 -1z m182 0 c0 -13 -75 -84 -89 -84 -9 0 2 18
29 45 41 41 60 54 60 39z m-195 -23 c3 -5 1 -12 -5 -16 -5 -3 -10 1 -10 9 0
18 6 21 15 7z m85 -5 c0 -3 -4 -8 -10 -11 -5 -3 -10 -1 -10 4 0 6 5 11 10 11
6 0 10 -2 10 -4z m40 -1 c0 -3 -9 -14 -21 -26 -15 -15 -18 -24 -10 -33 6 -7 9
-16 6 -20 -3 -3 1 -2 7 4 7 5 19 10 27 10 10 0 8 -7 -10 -26 l-24 -25 -9 28
c-5 15 -14 31 -20 35 -7 4 -2 16 14 32 22 24 40 33 40 21z m85 -5 c-3 -5 -14
-10 -23 -10 -15 0 -15 2 -2 10 20 13 33 13 25 0z m-165 -26 c0 -3 -9 -17 -19
-30 -12 -16 -22 -21 -26 -14 -4 6 1 20 11 31 17 18 34 25 34 13z m130 -9 c-7
-8 -19 -15 -27 -15 -13 0 -13 3 -3 15 7 8 19 15 27 15 13 0 13 -3 3 -15z
m-144 -63 c-17 -17 -26 -22 -26 -12 0 19 44 64 48 50 3 -7 -7 -24 -22 -38z"/>
<path d="M905 2539 c-4 -6 -5 -12 -2 -15 2 -3 7 2 10 11 7 17 1 20 -8 4z"/>
<path d="M2080 939 c0 -5 5 -7 10 -4 6 3 10 8 10 11 0 2 -4 4 -10 4 -5 0 -10
-5 -10 -11z"/>
<path d="M1975 3150 c11 -5 30 -9 41 -9 12 -1 35 -8 50 -16 16 -8 36 -15 44
-15 8 0 27 -11 42 -25 15 -14 30 -25 34 -25 15 0 45 -46 41 -62 -3 -9 -2 -17
2 -16 18 2 22 -4 11 -17 -11 -13 -10 -15 1 -10 19 7 41 -39 25 -55 -8 -8 -6
-9 7 -5 22 9 22 -3 0 -29 -10 -12 -11 -15 -3 -8 21 19 26 15 44 -28 24 -61 17
-316 -18 -672 -2 -21 0 -38 4 -38 4 0 17 60 29 133 12 72 28 144 36 160 8 16
10 27 4 27 -6 0 -8 11 -5 28 4 15 8 51 11 81 3 30 8 58 11 63 14 22 19 160 9
212 -14 61 16 11 45 -80 23 -71 29 -82 29 -54 1 139 -122 345 -246 412 -51 28
-175 58 -233 57 -29 0 -31 -2 -15 -9z"/>
<path d="M1507 3020 c17 -41 33 -53 33 -22 -1 16 -32 62 -43 62 -3 0 2 -18 10
-40z"/>
<path d="M881 2974 c0 -11 3 -14 6 -6 3 7 2 16 -1 19 -3 4 -6 -2 -5 -13z"/>
<path d="M872 2920 c0 -19 2 -27 5 -17 2 9 2 25 0 35 -3 9 -5 1 -5 -18z"/>
<path d="M2019 2693 l-24 -28 28 24 c25 23 32 31 24 31 -2 0 -14 -12 -28 -27z"/>
<path d="M1461 2493 c-5 -10 -13 -17 -18 -16 -4 1 -7 -5 -5 -14 2 -8 -1 -12
-6 -9 -6 3 -19 -14 -31 -39 -22 -46 -29 -87 -12 -69 11 11 91 164 86 164 -2 0
-8 -8 -14 -17z"/>
<path d="M2244 2433 c-3 -16 -8 -35 -11 -43 -3 -8 -7 -33 -9 -54 -3 -22 -7
-51 -9 -65 -3 -14 -8 -51 -11 -81 -3 -30 -7 -57 -10 -59 -5 -6 16 -31 27 -31
5 0 15 12 24 28 l16 27 -6 -30 c-5 -27 -4 -28 9 -12 8 11 17 54 21 105 3 48 8
110 10 137 3 37 2 43 -4 25 -5 -14 -9 -37 -10 -52 -1 -16 -5 -28 -10 -28 -5 0
-8 8 -6 18 2 9 6 33 9 52 5 33 5 34 -9 16 -11 -15 -15 -16 -15 -5 0 8 5 20 12
27 9 9 9 12 -1 12 -8 0 -10 7 -6 20 3 11 4 20 1 20 -3 0 -8 -12 -12 -27z m13
-95 c-3 -8 -6 -5 -6 6 -1 11 2 17 5 13 3 -3 4 -12 1 -19z m10 -80 c-3 -8 -6
-5 -6 6 -1 11 2 17 5 13 3 -3 4 -12 1 -19z"/>
<path d="M2029 2403 c-13 -16 -12 -17 4 -4 9 7 17 15 17 17 0 8 -8 3 -21 -13z"/>
<path d="M1493 2375 c-19 -21 -16 -33 10 -41 12 -3 30 -13 39 -22 10 -8 41
-17 69 -19 30 -2 76 -16 111 -34 32 -16 63 -27 69 -24 5 4 18 -13 29 -37 11
-24 17 -32 14 -18 -3 14 -20 48 -37 77 -34 58 -64 74 -186 97 -40 8 -78 19
-84 25 -14 14 -19 13 -34 -4z m160 -42 c-7 -2 -19 -2 -25 0 -7 3 -2 5 12 5 14
0 19 -2 13 -5z m135 -82 c6 -18 -36 9 -43 28 -5 11 -2 11 17 -1 12 -8 24 -20
26 -27z"/>
<path d="M1139 2320 c-28 -19 -57 -30 -79 -30 -30 0 -41 -7 -68 -42 -37 -48
-35 -60 4 -29 16 12 41 21 63 21 49 0 105 17 132 39 21 17 22 21 9 36 -8 10
-13 20 -12 22 2 3 2 7 -1 9 -2 2 -24 -9 -48 -26z"/>
<path d="M2035 2228 l-50 -53 53 50 c28 27 52 51 52 52 0 8 -9 -1 -55 -49z"/>
<path d="M2405 2259 c-4 -6 -5 -12 -2 -15 2 -3 7 2 10 11 7 17 1 20 -8 4z"/>
<path d="M2010 2163 l-65 -68 68 65 c62 60 72 70 64 70 -1 0 -32 -30 -67 -67z"/>
<path d="M1134 2198 l-19 -23 23 19 c21 18 27 26 19 26 -2 0 -12 -10 -23 -22z"/>
<path d="M1164 2188 c-27 -31 -27 -31 -2 -9 23 20 30 22 43 11 21 -18 19 -30
-12 -64 l-28 -31 31 28 31 28 7 -28 c25 -102 28 -109 37 -85 15 39 -40 182
-71 182 -3 0 -19 -15 -36 -32z"/>
<path d="M1484 2185 c3 -9 0 -15 -9 -15 -9 0 -12 -6 -9 -15 4 -9 1 -15 -7 -15
-8 0 -23 -21 -34 -47 -27 -63 -29 -73 -11 -43 l15 25 1 -25 c1 -23 2 -22 16 9
8 19 22 39 31 46 10 8 14 19 9 30 -5 14 -4 16 7 7 11 -9 21 -3 48 26 19 20 25
29 14 20 -17 -14 -22 -15 -39 -2 -26 18 -40 18 -32 -1z m46 -20 c0 -2 -7 -8
-15 -15 -12 -10 -15 -10 -15 2 0 8 7 15 15 15 8 0 15 -1 15 -2z m-88 -87 c-7
-7 -12 -8 -12 -2 0 6 3 14 7 17 3 4 9 5 12 2 2 -3 -1 -11 -7 -17z"/>
<path d="M2045 2160 c-40 -42 -27 -46 15 -4 19 19 29 34 24 34 -6 0 -23 -13
-39 -30z"/>
<path d="M1599 2143 l-34 -38 38 34 c20 19 37 36 37 38 0 8 -8 0 -41 -34z"/>
<path d="M2356 2163 c-6 -14 -5 -15 5 -6 7 7 10 15 7 18 -3 3 -9 -2 -12 -12z"/>
<path d="M1174 2148 l-19 -23 23 19 c21 18 27 26 19 26 -2 0 -12 -10 -23 -22z"/>
<path d="M1620 2125 c-29 -30 -39 -34 -73 -32 -30 3 -46 -2 -66 -19 -19 -17
-22 -23 -10 -24 8 0 20 5 26 11 13 13 48 -2 57 -26 9 -23 73 -20 86 5 8 15 15
17 33 11 56 -21 73 -21 73 -1 0 10 -4 16 -8 14 -4 -3 -14 -2 -20 3 -7 4 -16 8
-20 9 -5 1 -11 2 -14 3 -4 0 0 9 7 19 11 14 9 13 -9 -2 -32 -27 -40 -11 -11
22 l24 27 -31 -27 c-51 -47 -74 -35 -27 14 15 15 25 28 22 28 -3 0 -20 -16
-39 -35z"/>
<path d="M2030 2093 l-65 -68 68 65 c62 60 72 70 64 70 -1 0 -32 -30 -67 -67z"/>
<path d="M1539 2123 c-13 -16 -12 -17 4 -4 9 7 17 15 17 17 0 8 -8 3 -21 -13z"/>
<path d="M2030 2055 c-41 -41 -72 -75 -69 -75 2 0 38 34 79 75 41 41 72 75 69
75 -2 0 -38 -34 -79 -75z"/>
<path d="M1200 2095 c-8 -9 -30 -15 -59 -15 -80 -1 -134 -16 -158 -45 -13 -14
-23 -31 -23 -37 0 -6 9 1 21 16 23 29 50 34 69 11 17 -21 52 -19 78 5 12 11
27 20 35 20 13 0 36 21 51 48 10 17 1 15 -14 -3z"/>
<path d="M1219 2063 c-13 -16 -12 -17 4 -4 9 7 17 15 17 17 0 8 -8 3 -21 -13z"/>
<path d="M1512 2038 c2 -6 15 -18 29 -27 l24 -15 -24 27 c-26 29 -35 34 -29
15z"/>
<path d="M2009 1993 c-27 -29 -28 -32 -7 -17 22 16 54 54 45 54 -2 0 -19 -16
-38 -37z"/>
<path d="M2005 1938 l-80 -83 83 80 c45 44 82 81 82 82 0 8 -11 -3 -85 -79z"/>
<path d="M1600 2000 c-29 -6 -31 -8 -10 -10 37 -3 73 1 90 11 18 10 -28 10
-80 -1z"/>
<path d="M1220 1985 c-7 -9 -11 -17 -9 -20 3 -2 10 5 17 15 14 24 10 26 -8 5z"/>
<path d="M1429 1973 c-13 -16 -12 -17 4 -4 9 7 17 15 17 17 0 8 -8 3 -21 -13z"/>
<path d="M1100 1949 c-26 -12 -54 -18 -68 -14 -17 4 -23 2 -19 -7 2 -7 14 -12
26 -11 23 3 29 -12 9 -20 -7 -3 1 -4 18 -3 17 1 44 12 59 24 33 26 26 28 -17
6 -16 -9 -27 -11 -23 -5 3 6 23 20 43 31 48 25 30 24 -28 -1z"/>
<path d="M1209 1922 l-34 -37 38 34 c20 19 37 29 37 22 0 -7 -18 -65 -39 -129
-21 -65 -47 -146 -56 -182 -10 -36 -30 -81 -45 -100 -39 -51 -70 -115 -70
-146 0 -15 9 -41 20 -59 l20 -32 -28 5 c-15 2 -32 9 -39 14 -21 16 -24 -9 -4
-33 15 -19 22 -21 32 -12 9 9 15 8 27 -4 13 -13 14 -18 2 -37 -12 -20 -12 -20
6 -6 10 8 24 22 31 30 6 8 15 12 19 7 4 -4 -3 -19 -17 -34 -17 -20 -18 -23 -3
-10 27 23 34 22 35 -5 0 -22 1 -22 8 -3 5 11 6 26 3 33 -2 7 6 25 19 40 l24
27 -26 -23 c-33 -29 -46 -16 -17 17 l23 26 -22 -19 c-20 -16 -25 -17 -39 -5
-10 8 -25 32 -35 54 -20 45 -15 63 43 155 19 30 38 71 42 90 3 19 24 89 45
155 64 198 64 237 0 167z m-99 -652 c0 -5 -4 -10 -10 -10 -5 0 -10 5 -10 10 0
6 5 10 10 10 6 0 10 -4 10 -10z"/>
<path d="M2020 1915 c-24 -25 -42 -45 -39 -45 3 0 25 20 49 45 24 25 42 45 39
45 -3 0 -25 -20 -49 -45z"/>
<path d="M1528 1911 c18 -17 37 -31 44 -31 6 0 9 1 7 3 -2 2 -22 15 -44 31
l-40 28 33 -31z"/>
<path d="M1670 1893 c-59 -26 -64 -29 -68 -43 -3 -8 14 -2 42 14 26 15 50 26
52 23 3 -2 -12 -14 -32 -26 -20 -12 -34 -24 -31 -27 3 -3 29 11 59 31 29 20
42 34 29 30 -16 -5 -21 -4 -17 4 9 13 9 13 -34 -6z"/>
<path d="M1949 1843 c-13 -16 -12 -17 4 -4 9 7 17 15 17 17 0 8 -8 3 -21 -13z"/>
<path d="M2019 1823 l-24 -28 28 24 c25 23 32 31 24 31 -2 0 -14 -12 -28 -27z"/>
<path d="M2180 1815 c-7 -8 -8 -15 -3 -15 5 0 10 -31 11 -69 3 -75 33 -192 81
-316 17 -44 31 -87 31 -96 0 -47 128 -258 203 -336 67 -69 63 -49 -7 36 -68
84 -122 168 -113 177 3 3 10 -3 16 -14 16 -30 201 -144 201 -123 0 5 -28 27
-62 49 -88 57 -202 176 -227 235 -65 151 -106 326 -114 475 -1 15 -2 15 -17
-3z"/>
<path d="M1984 1748 l-19 -23 23 19 c21 18 27 26 19 26 -2 0 -12 -10 -23 -22z"/>
<path d="M1960 1593 l-55 -58 58 55 c53 50 62 60 54 60 -1 0 -27 -26 -57 -57z"/>
<path d="M1942 1624 c-7 -8 -8 -14 -3 -14 10 0 25 19 20 25 -2 1 -10 -3 -17
-11z"/>
<path d="M1974 1568 l-29 -33 33 29 c30 28 37 36 29 36 -2 0 -16 -15 -33 -32z"/>
<path d="M2280 1520 c1 -24 71 -143 123 -210 50 -64 107 -110 176 -140 56 -26
61 -8 7 24 -64 38 -178 152 -215 216 -38 66 -91 130 -91 110z"/>
<path d="M1994 1498 l-19 -23 23 19 c21 18 27 26 19 26 -2 0 -12 -10 -23 -22z"/>
<path d="M1929 1483 c-13 -16 -12 -17 4 -4 9 7 17 15 17 17 0 8 -8 3 -21 -13z"/>
<path d="M1989 1453 l-24 -28 28 24 c25 23 32 31 24 31 -2 0 -14 -12 -28 -27z"/>
<path d="M1288 1444 c14 -27 73 -79 113 -99 27 -15 29 -19 23 -53 -4 -21 -20
-51 -37 -69 -23 -24 -27 -33 -15 -33 9 0 28 14 43 31 21 26 25 40 23 78 -3 42
-6 47 -41 64 -20 9 -56 36 -79 60 -22 23 -36 32 -30 21z"/>
<path d="M1974 1398 l-19 -23 23 19 c21 18 27 26 19 26 -2 0 -12 -10 -23 -22z"/>
<path d="M1011 1374 c0 -11 3 -14 6 -6 3 7 2 16 -1 19 -3 4 -6 -2 -5 -13z"/>
<path d="M1964 1338 l-19 -23 23 19 c21 18 27 26 19 26 -2 0 -12 -10 -23 -22z"/>
<path d="M1210 1324 c0 -3 10 -18 22 -32 14 -18 19 -21 14 -8 -5 14 -4 16 6 8
14 -11 17 -12 49 -12 18 0 20 -4 15 -26 -6 -22 -4 -25 16 -22 37 5 30 47 -11
75 -31 21 -111 33 -111 17z"/>
<path d="M942 1193 c-18 -47 -25 -79 -15 -68 12 13 36 85 30 91 -2 3 -9 -8
-15 -23z"/>
<path d="M1111 1175 c0 -12 -5 -25 -10 -30 -5 -6 -11 -26 -14 -45 l-4 -35 -1
38 c-2 32 -5 37 -26 37 -33 0 -43 -16 -48 -78 -4 -43 -3 -52 9 -48 8 4 16 6
18 6 2 0 0 14 -5 30 -5 17 -5 30 0 30 4 0 11 -11 14 -25 6 -22 8 -24 34 -13
35 16 73 44 72 55 -1 4 4 9 12 11 10 3 10 2 1 -5 -21 -15 13 -53 46 -53 20 0
31 7 40 26 9 21 14 24 26 14 8 -7 15 -9 15 -4 0 4 14 -5 31 -22 l31 -29 -16
32 c-25 51 -18 52 13 3 55 -88 76 -87 46 1 -14 39 -55 84 -55 60 0 -6 5 -13
10 -16 6 -3 10 -12 10 -18 0 -7 -9 1 -19 17 -26 39 -48 51 -67 35 -12 -9 -13
-9 -9 2 4 10 -2 15 -15 16 -12 1 -20 -4 -20 -15 0 -13 -2 -13 -14 3 -13 18
-14 18 -20 -3 -4 -12 -12 -22 -17 -22 -6 0 -6 6 0 18 9 16 6 18 -24 16 -25 -2
-35 1 -38 14 -4 13 -5 13 -6 -3z m36 -47 c-3 -8 -6 -5 -6 6 -1 11 2 17 5 13 3
-3 4 -12 1 -19z m141 -33 c-3 -3 -9 2 -12 12 -6 14 -5 15 5 6 7 -7 10 -15 7
-18z"/>
<path d="M1615 1169 c-4 -6 -5 -12 -2 -15 2 -3 7 2 10 11 7 17 1 20 -8 4z"/>
<path d="M1789 1158 c0 -7 0 -37 1 -66 1 -32 -4 -60 -12 -69 -9 -12 -10 -15 0
-9 23 14 13 -20 -13 -42 -14 -12 -25 -26 -25 -32 0 -5 14 4 30 22 29 30 30 35
30 119 0 49 -2 89 -5 89 -3 0 -5 -6 -6 -12z"/>
<path d="M1836 1149 c-3 -13 -7 -57 -10 -97 -6 -69 -8 -74 -46 -108 -22 -20
-40 -41 -40 -46 0 -5 15 7 34 26 18 20 38 36 43 36 11 0 39 197 30 207 -3 3
-8 -5 -11 -18z"/>
<path d="M1713 1055 c0 -38 2 -53 4 -32 2 20 2 52 0 70 -2 17 -4 1 -4 -38z"/>
<path d="M1750 1055 c0 -38 3 -66 6 -63 3 4 5 32 5 63 0 31 -2 59 -5 63 -3 3
-6 -25 -6 -63z"/>
<path d="M935 1053 l-37 -34 7 -77 c3 -42 6 -97 6 -120 0 -34 3 -43 14 -38 9
3 12 0 8 -10 -3 -7 0 -14 6 -14 7 0 11 32 11 94 0 53 4 98 10 101 6 3 11 23
11 43 1 23 3 29 6 15 8 -39 18 -25 19 25 1 59 -10 61 -61 15z"/>
<path d="M1089 976 c-42 -15 -99 -53 -99 -67 0 -13 4 -12 57 18 36 20 69 28
140 35 106 9 131 3 214 -57 70 -50 61 -24 -11 32 -52 40 -68 47 -116 50 -32 3
-61 0 -69 -7 -9 -7 -15 -8 -20 0 -8 14 -52 12 -96 -4z"/>
<path d="M1102 918 c6 -17 101 -23 151 -8 59 17 38 23 -44 11 -50 -7 -79 -7
-92 1 -15 8 -18 7 -15 -4z"/>
<path d="M2127 903 c-3 -5 -2 -15 4 -23 5 -8 9 -34 9 -57 0 -23 5 -45 12 -49
8 -5 9 9 5 56 -7 62 -19 91 -30 73z"/>
<path d="M1736 853 c-6 -14 -5 -15 5 -6 7 7 10 15 7 18 -3 3 -9 -2 -12 -12z"/>
<path d="M1335 798 l-40 -43 43 40 c23 21 42 40 42 42 0 8 -9 0 -45 -39z"/>
<path d="M1364 788 l-29 -33 33 29 c30 28 37 36 29 36 -2 0 -16 -15 -33 -32z"/>
<path d="M1054 778 l-29 -33 33 29 c17 17 32 31 32 33 0 8 -8 1 -36 -29z"/>
<path d="M1079 763 l-34 -38 38 34 c34 33 42 41 34 41 -2 0 -19 -17 -38 -37z"/>
<path d="M1766 759 c-16 -16 -27 -31 -24 -34 2 -3 17 9 33 25 37 39 29 47 -9
9z"/>
<path d="M1599 713 c-13 -16 -12 -17 4 -4 16 13 21 21 13 21 -2 0 -10 -8 -17
-17z"/>
<path d="M1715 710 c-3 -5 -1 -10 4 -10 6 0 11 5 11 10 0 6 -2 10 -4 10 -3 0
-8 -4 -11 -10z"/>
<path d="M851 654 c0 -11 3 -14 6 -6 3 7 2 16 -1 19 -3 4 -6 -2 -5 -13z"/>
<path d="M1690 240 c0 -5 5 -10 11 -10 5 0 7 5 4 10 -3 6 -8 10 -11 10 -2 0
-4 -4 -4 -10z"/>
<path d="M1630 190 c-8 -5 -12 -11 -9 -14 3 -3 14 1 25 9 21 16 8 20 -16 5z"/>
<path d="M1960 76 c0 -42 4 -76 9 -76 13 0 23 65 15 105 -11 63 -24 48 -24
-29z"/>
<path d="M1575 38 l-40 -43 43 40 c23 21 42 40 42 42 0 8 -9 0 -45 -39z"/>
<path d="M1209 23 l-24 -26 27 19 c15 10 28 22 28 27 0 12 -5 8 -31 -20z"/>
</g>
</svg>
