<svg version="1.1" id="Layer_1" xmlns="http://www.w3.org/2000/svg" xmlns:xlink="http://www.w3.org/1999/xlink" x="0px" y="0px" width="100%" viewBox="0 0 150 200" enable-background="new 0 0 150 200" xml:space="preserve">
<path fill="#FDFDFD" opacity="1.000000" stroke="none" d=" M23.000002,201.000000   C15.671784,201.000000 8.343570,201.000000 1.011516,201.000000   C1.007677,134.384979 1.007677,67.769958 1.007677,1.077468   C50.913357,1.077468 100.826866,1.077468 150.870178,1.077468   C150.870178,67.666504 150.870178,134.333206 150.870178,201.000000   C132.912140,201.000000 114.924728,201.000000 96.775681,200.726578   C94.661751,199.018387 92.835526,197.354523 90.730995,196.196411   C86.318016,193.767929 83.166603,190.948975 84.087845,185.167130   C84.571236,182.133270 84.014900,178.933746 84.300919,175.847061   C85.867126,176.448990 87.199234,176.829269 88.230255,177.608109   C93.103836,181.289597 98.574265,179.965729 104.019440,179.978363   C112.073654,179.997040 111.076889,172.928513 113.641579,168.653870   C114.548737,167.141876 115.217064,165.469986 115.848228,163.815338   C116.214645,162.854736 116.475327,161.781937 116.467552,160.762024   C116.412262,153.505020 116.275391,146.248627 116.528839,138.899689   C118.127823,135.363037 119.428238,131.939697 120.538551,128.455795   C120.746986,127.801781 120.380592,126.787117 119.965065,126.141106   C117.624031,122.501442 116.219345,119.173225 118.635704,114.602928   C120.141174,111.755478 119.873680,107.850105 119.946632,104.409866   C119.992256,102.258987 119.191299,100.090157 118.661926,97.373672   C118.499634,97.346573 117.562187,97.190025 116.887978,96.791153   C118.114029,95.757690 119.076859,94.966553 120.417328,93.982323   C121.746010,86.537453 122.697037,79.285667 123.779724,71.627350   C123.588539,68.632263 123.814629,65.800339 122.802498,63.517380   C121.565277,60.726727 121.302864,58.898174 123.273201,56.158730   C125.304756,53.334167 126.092743,49.615158 127.462799,46.192577   C126.009216,45.124603 124.842094,44.267105 123.583488,43.342388   C124.108307,42.058346 124.581833,40.899818 125.073334,39.697308   C121.925949,38.489025 118.949852,37.504345 116.135971,36.176010   C115.218231,35.742775 114.035522,34.313465 114.152420,33.511475   C114.701500,29.744390 112.434875,27.810963 109.989342,25.691473   C106.119888,22.337910 102.501572,18.695635 98.657959,15.310688   C97.104080,13.942231 95.236938,12.929490 93.512360,11.754873   C93.212090,12.102976 92.911827,12.451077 92.611565,12.799180   C92.927582,14.038359 93.243607,15.277537 93.339874,16.706413   C92.980942,17.030588 92.841766,17.165066 92.366554,17.211601   C88.630539,14.564672 85.142334,12.720533 80.555428,13.832287   C78.729790,14.274776 76.596634,13.672356 74.643799,13.321325   C70.068672,12.498923 65.545570,11.345708 60.949253,10.694420   C56.590778,10.076836 55.405975,11.639781 56.822002,16.131817   C47.628834,12.468439 41.280010,18.951044 33.671612,20.913580   C33.683022,21.444830 33.694431,21.976078 33.705841,22.507328   C36.504055,23.734272 39.302269,24.961214 42.100483,26.188158   C41.977108,26.625019 41.853733,27.061882 41.730362,27.498743   C34.920326,27.498743 28.110292,27.498743 21.300257,27.498743   C20.995291,28.012352 20.690327,28.525959 20.385361,29.039568   C24.147024,32.883839 27.908686,36.728111 31.627705,40.528805   C28.952847,41.862366 26.444246,43.113041 23.369947,44.645748   C26.908825,47.655083 33.672054,46.600555 30.840397,53.331902   C29.549271,53.859005 28.131361,54.437866 26.222349,55.217224   C33.890629,63.563065 28.572186,72.602623 29.207592,81.619987   C34.627392,83.519890 36.207565,88.360817 36.881916,92.524933   C34.451790,94.809708 32.756180,96.403900 30.952721,98.428123   C33.971546,108.757584 36.688446,118.820267 40.520283,128.438782   C41.448925,130.769821 46.054615,131.635986 49.268959,133.454041   C49.827122,134.292313 50.300488,134.847488 50.313122,135.412964   C50.638371,149.970810 50.872234,164.530792 51.235584,179.087585   C51.313637,182.214539 50.823570,184.405090 47.128227,185.044098   C46.180714,185.207947 45.588863,187.428589 44.511772,188.863205   C42.418709,189.917862 40.602654,190.735703 38.884613,191.723923   C33.569687,194.781082 28.292091,197.903137 23.000002,201.000000  z"/>
<path fill="#FCD184" opacity="1.000000" stroke="none" d=" M80.000000,201.000000   C71.979103,201.000000 63.958202,201.000000 55.439270,200.630371   C52.336468,197.069382 50.328030,193.812607 53.929283,189.500275   C54.205223,180.732285 54.362713,172.417587 54.830360,164.078201   C56.092907,163.703552 57.045288,163.353577 58.028755,163.358551   C61.901237,168.840637 65.619926,174.066696 69.638184,179.051270   C71.518227,181.383438 74.148338,183.130203 72.324173,186.749908   C72.135849,187.123581 73.408531,188.233521 74.075577,189.371582   C75.774834,190.163849 77.401794,190.586365 79.046143,191.292450   C79.338120,192.045074 79.612709,192.514114 79.916122,193.329498   C79.956192,194.138367 79.967430,194.600891 79.969116,195.487106   C79.973030,197.607193 79.986519,199.303604 80.000000,201.000000  z"/>
<path fill="#18120F" opacity="1.000000" stroke="none" d=" M79.978668,195.063416   C79.967430,194.600891 79.956192,194.138367 80.036240,192.979782   C79.792679,191.456116 79.457825,190.628510 79.100479,189.425262   C79.089218,188.046814 79.100456,187.044006 79.462769,185.814011   C80.284668,182.053406 80.755493,178.520020 81.528687,174.983826   C82.530075,175.257019 83.229088,175.533035 83.928101,175.809036   C84.014900,178.933746 84.571236,182.133270 84.087845,185.167130   C83.166603,190.948975 86.318016,193.767929 90.730995,196.196411   C92.835526,197.354523 94.661751,199.018387 96.307022,200.726578   C93.299988,201.000000 90.599968,201.000000 87.424278,200.629028   C85.690590,197.698425 84.432579,195.138794 83.002556,192.229187   C81.534828,193.604858 80.756744,194.334137 79.978668,195.063416  z"/>
<path fill="#121516" opacity="1.000000" stroke="none" d=" M23.428465,201.000000   C28.292091,197.903137 33.569687,194.781082 38.884613,191.723923   C40.602654,190.735703 42.418709,189.917862 44.658279,189.162842   C45.766983,189.902695 46.407337,190.501801 47.046978,191.433411   C47.023613,192.208771 47.000957,192.651611 46.616230,193.102783   C40.502769,195.740723 34.751381,198.370361 28.999998,201.000000   C27.285643,201.000000 25.571283,201.000000 23.428465,201.000000  z"/>
<path fill="#597777" opacity="1.000000" stroke="none" d=" M29.468531,201.000000   C34.751381,198.370361 40.502769,195.740723 46.645882,193.463593   C48.025074,196.210739 49.012535,198.605362 50.000000,201.000000   C43.312355,201.000000 36.624710,201.000000 29.468531,201.000000  z"/>
<path fill="#293221" opacity="1.000000" stroke="none" d=" M50.416664,201.000000   C49.012535,198.605362 48.025074,196.210739 47.007957,193.455292   C47.000957,192.651611 47.023613,192.208771 47.049423,191.413422   C47.052578,191.060928 47.076958,191.034531 47.416451,190.977966   C48.135548,189.944778 48.515152,188.968140 48.914944,187.964539   C48.935131,187.937576 48.989174,187.897339 49.240784,187.927765   C49.660515,187.975021 49.828636,187.991837 50.175209,188.262238   C51.506046,188.995087 52.658436,189.474335 53.810829,189.953583   C50.328030,193.812607 52.336468,197.069382 54.970619,200.630371   C53.611111,201.000000 52.222221,201.000000 50.416664,201.000000  z"/>
<path fill="#D8B98F" opacity="1.000000" stroke="none" d=" M79.969101,195.487106   C80.756744,194.334137 81.534828,193.604858 83.002556,192.229187   C84.432579,195.138794 85.690590,197.698425 86.974304,200.629028   C84.958336,201.000000 82.916664,201.000000 80.437500,201.000000   C79.986519,199.303604 79.973030,197.607193 79.969101,195.487106  z"/>
<path fill="#060505" opacity="1.000000" stroke="none" d=" M53.929279,189.500275   C52.658436,189.474335 51.506046,188.995087 50.098457,188.089203   C49.558567,187.740829 49.273869,187.819092 48.989174,187.897339   C48.989174,187.897339 48.935131,187.937576 48.638496,188.113129   C47.920227,189.203964 47.498592,190.119247 47.076958,191.034531   C47.076958,191.034531 47.052578,191.060928 47.050133,191.080902   C46.407337,190.501801 45.766983,189.902695 44.980125,189.003967   C45.588863,187.428589 46.180714,185.207947 47.128227,185.044098   C50.823570,184.405090 51.313637,182.214539 51.235584,179.087585   C50.872234,164.530792 50.638371,149.970810 50.313122,135.412964   C50.300488,134.847488 49.827122,134.292313 49.301689,133.035904   C49.149693,131.793167 49.264450,131.246841 49.661270,130.610382   C50.179714,129.668488 50.416096,128.816742 50.695618,127.595535   C50.259571,126.113068 49.780376,125.000061 49.346062,123.503601   C48.935703,120.744209 48.480469,118.368263 48.389397,116.020325   C53.014275,114.819031 50.283688,112.145020 50.032188,109.620895   C46.351040,105.550446 42.645603,101.837372 38.459255,98.073151   C37.673794,98.127853 37.369244,98.233688 37.051849,98.362366   C37.039005,98.385201 36.984982,98.368431 36.739937,98.198761   C35.701565,98.036148 34.908237,98.043205 33.733227,98.038773   C32.587883,98.017555 31.824224,98.007828 31.060566,97.998100   C32.756180,96.403900 34.451790,94.809708 36.881916,92.524933   C36.207565,88.360817 34.627392,83.519890 29.207592,81.619987   C28.572186,72.602623 33.890629,63.563065 26.222349,55.217224   C28.131361,54.437866 29.549271,53.859005 30.840397,53.331902   C33.672054,46.600555 26.908825,47.655083 23.369947,44.645748   C26.444246,43.113041 28.952847,41.862366 31.627705,40.528805   C27.908686,36.728111 24.147024,32.883839 20.385361,29.039568   C20.690327,28.525959 20.995291,28.012352 21.300257,27.498743   C28.110292,27.498743 34.920326,27.498743 41.730362,27.498743   C41.853733,27.061882 41.977108,26.625019 42.100483,26.188158   C39.302269,24.961214 36.504055,23.734272 33.705841,22.507328   C33.694431,21.976078 33.683022,21.444830 33.671612,20.913580   C41.280010,18.951044 47.628834,12.468439 56.822002,16.131817   C55.405975,11.639781 56.590778,10.076836 60.949253,10.694420   C65.545570,11.345708 70.068672,12.498923 74.643799,13.321325   C76.596634,13.672356 78.729790,14.274776 80.555428,13.832287   C85.142334,12.720533 88.630539,14.564672 92.509369,17.465776   C93.178688,17.377499 93.369156,16.947107 93.559624,16.516716   C93.243607,15.277537 92.927582,14.038359 92.611565,12.799180   C92.911827,12.451077 93.212090,12.102976 93.512360,11.754873   C95.236938,12.929490 97.104080,13.942231 98.657959,15.310688   C102.501572,18.695635 106.119888,22.337910 109.989342,25.691473   C112.434875,27.810963 114.701500,29.744390 114.152420,33.511475   C114.035522,34.313465 115.218231,35.742775 116.135971,36.176010   C118.949852,37.504345 121.925949,38.489025 125.073334,39.697308   C124.581833,40.899818 124.108307,42.058346 123.583488,43.342388   C124.842094,44.267105 126.009216,45.124603 127.462799,46.192577   C126.092743,49.615158 125.304756,53.334167 123.273201,56.158730   C121.302864,58.898174 121.565277,60.726727 122.802498,63.517380   C123.814629,65.800339 123.588539,68.632263 123.583496,71.764175   C122.586586,72.198578 121.917564,72.089630 121.177376,71.579071   C119.983398,62.154171 114.389847,55.650623 109.100815,48.308216   C108.115273,50.122746 107.587715,51.094063 106.719734,52.161739   C101.837608,56.146748 99.406693,50.916824 95.872375,49.604393   C94.811203,49.411774 93.887939,49.472607 92.800018,49.713409   C92.635368,49.893375 92.189781,50.091995 91.736526,50.070915   C89.467049,50.058270 87.650810,50.066704 85.494507,50.014412   C80.854485,47.910580 76.693069,45.459301 72.215508,43.939461   C67.762146,42.427837 59.260017,47.512897 58.869381,51.334923   C58.500847,54.940662 57.861191,58.556950 57.915901,62.159866   C58.036018,70.070328 58.519684,77.975281 58.578533,86.096725   C57.319283,88.321732 55.508739,90.327042 55.495445,92.344200   C55.434711,101.556396 55.878326,110.771919 56.069324,120.449829   C56.320728,127.678360 56.617702,134.444702 56.976006,141.207764   C57.190338,145.253372 58.539127,148.404922 63.064995,149.399872   C69.024429,150.710007 74.931915,152.256470 81.211655,153.864319   C83.149704,154.027298 84.737839,154.027298 86.490631,154.027298   C87.076614,151.935654 87.629234,149.963089 88.472702,147.819885   C89.812775,145.395477 90.862000,143.141724 91.958099,140.919800   C92.004990,140.951645 91.909355,140.901474 92.206581,140.932983   C93.000717,140.689056 93.497635,140.413651 94.350967,139.999084   C97.413452,139.208023 100.119514,138.556091 103.133095,138.056458   C104.633392,138.807739 105.826172,139.406708 107.023018,140.392136   C106.991371,141.807770 106.955666,142.836960 106.529480,143.921677   C103.415237,144.528519 100.691475,145.079834 97.845169,145.512939   C97.482178,145.567856 97.241730,145.740982 96.656235,146.098465   C91.586952,146.665024 93.721275,150.603088 92.550735,153.027985   C92.238335,153.742310 92.215370,154.406448 92.228302,155.397232   C92.156044,156.146698 92.047897,156.569519 91.598724,157.058563   C88.761803,159.982498 88.306656,162.665924 92.087341,165.346115   C93.785065,166.155945 95.325798,166.620651 97.086662,167.358948   C100.337967,169.790131 103.329849,170.620346 106.630531,167.972412   C108.914024,166.140503 111.455307,164.629929 113.958153,162.594360   C114.034798,158.075211 113.172554,153.697769 114.240379,149.856934   C115.770958,144.351562 113.590675,143.481735 109.168800,143.571655   C109.141953,142.216187 109.053375,141.144516 108.990211,139.733459   C109.014999,138.940613 109.014374,138.487152 109.023735,137.663223   C109.374565,136.443130 109.715408,135.593536 110.382065,134.776215   C111.137108,134.746368 111.566330,134.684235 112.366089,134.734970   C113.879250,136.229248 115.021866,137.610657 116.164490,138.992050   C116.275391,146.248627 116.412262,153.505020 116.467552,160.762024   C116.475327,161.781937 116.214645,162.854736 115.848228,163.815338   C115.217064,165.469986 114.548737,167.141876 113.641579,168.653870   C111.076889,172.928513 112.073654,179.997040 104.019440,179.978363   C98.574265,179.965729 93.103836,181.289597 88.230255,177.608109   C87.199234,176.829269 85.867126,176.448990 84.300919,175.847061   C83.229088,175.533035 82.530075,175.257019 81.503944,174.622620   C80.118019,173.450302 79.059219,172.636414 77.779701,171.568695   C69.939354,166.290146 62.319721,161.265427 54.085468,155.835388   C54.248734,158.940323 54.384468,161.521606 54.520199,164.102890   C54.362713,172.417587 54.205223,180.732285 53.929279,189.500275  M101.032478,49.491734   C101.942017,48.915257 102.851555,48.338779 103.761086,47.762302   C102.172523,46.746155 100.583961,45.730011 98.995399,44.713867   C98.593269,45.255608 98.191139,45.797344 97.789017,46.339081   C98.646957,47.277557 99.504906,48.216034 101.032478,49.491734  z"/>
<path fill="#D5CEBD" opacity="1.000000" stroke="none" d=" M116.528839,138.899689   C115.021866,137.610657 113.879250,136.229248 112.367027,134.396362   C113.057510,132.745575 114.405106,131.690262 115.097809,130.306992   C115.808098,128.888611 116.482010,126.995071 116.120110,125.578125   C114.765991,120.276436 112.857895,115.118492 111.411972,109.836990   C110.729622,107.344589 109.660500,105.532341 107.041885,104.609161   C107.038116,103.923462 107.045341,103.531174 107.403275,103.121414   C108.808395,102.782463 109.862801,102.460983 111.164795,102.093735   C111.604805,101.680969 111.797241,101.313972 112.038025,100.622299   C113.625229,99.245811 113.376122,95.708069 116.624748,97.033478   C117.562187,97.190025 118.499634,97.346573 118.661926,97.373672   C119.191299,100.090157 119.992256,102.258987 119.946632,104.409866   C119.873680,107.850105 120.141174,111.755478 118.635704,114.602928   C116.219345,119.173225 117.624031,122.501442 119.965065,126.141106   C120.380592,126.787117 120.746986,127.801781 120.538551,128.455795   C119.428238,131.939697 118.127823,135.363037 116.528839,138.899689  z"/>
<path fill="#18100E" opacity="1.000000" stroke="none" d=" M49.379204,130.700531   C49.264450,131.246841 49.149693,131.793167 49.002205,132.757629   C46.054615,131.635986 41.448925,130.769821 40.520283,128.438782   C36.688446,118.820267 33.971546,108.757584 30.952721,98.428123   C31.824224,98.007828 32.587883,98.017555 33.684128,98.472794   C36.245430,106.423080 38.133644,114.054817 40.862465,121.373116   C42.032227,124.510239 44.950249,126.995476 47.233948,130.081848   C48.043636,130.499313 48.693314,130.611816 49.360119,130.732300   C49.377243,130.740280 49.379208,130.700531 49.379204,130.700531  z"/>
<path fill="#1E1A13" opacity="1.000000" stroke="none" d=" M121.248550,71.980690   C121.917564,72.089630 122.586586,72.198578 123.451828,72.170708   C122.697037,79.285667 121.746010,86.537453 120.091469,93.839050   C119.092972,93.246696 118.797981,92.604530 118.622543,91.550484   C119.577576,84.752632 120.413063,78.366661 121.248550,71.980690  z"/>
<path fill="#DAD1BB" opacity="1.000000" stroke="none" d=" M118.502991,91.962364   C118.797981,92.604530 119.092972,93.246696 119.713821,94.032135   C119.076859,94.966553 118.114029,95.757690 116.887978,96.791153   C113.376122,95.708069 113.625229,99.245811 111.724335,100.628220   C110.897621,100.585495 110.432945,100.212166 109.823090,99.582893   C108.944481,98.232445 108.211037,97.137947 107.847260,96.008713   C111.666183,94.651375 115.115448,93.328766 118.554977,91.987976   C118.545235,91.969780 118.502991,91.962364 118.502991,91.962364  z"/>
<path fill="#C7AB7E" opacity="1.000000" stroke="none" d=" M54.830360,164.078201   C54.384468,161.521606 54.248734,158.940323 54.085468,155.835388   C62.319721,161.265427 69.939354,166.290146 77.779266,171.979767   C78.000107,177.090103 78.000664,181.535538 77.750732,185.990005   C77.333160,185.998489 77.166061,185.997910 76.848289,185.686768   C76.273689,183.279282 76.531357,180.583893 75.307144,179.189743   C70.173195,173.343170 64.599289,167.882523 59.140369,162.325867   C59.066231,162.250412 58.391880,162.764603 57.997669,163.003601   C57.045288,163.353577 56.092907,163.703552 54.830360,164.078201  z"/>
<path fill="#DEB479" opacity="1.000000" stroke="none" d=" M58.028755,163.358551   C58.391880,162.764603 59.066231,162.250412 59.140369,162.325867   C64.599289,167.882523 70.173195,173.343170 75.307144,179.189743   C76.531357,180.583893 76.273689,183.279282 76.677002,185.943176   C75.772026,187.340714 74.887650,188.171265 74.003281,189.001831   C73.408531,188.233521 72.135849,187.123581 72.324173,186.749908   C74.148338,183.130203 71.518227,181.383438 69.638184,179.051270   C65.619926,174.066696 61.901237,168.840637 58.028755,163.358551  z"/>
<path fill="#FBD38E" opacity="1.000000" stroke="none" d=" M74.075577,189.371582   C74.887650,188.171265 75.772026,187.340714 76.827682,186.253754   C77.166061,185.997910 77.333160,185.998489 78.027771,186.015900   C78.740761,186.035583 78.926231,186.038406 79.111694,186.041214   C79.100456,187.044006 79.089218,188.046814 79.069183,189.726562   C79.049843,190.605316 79.039299,190.807098 79.028748,191.008881   C77.401794,190.586365 75.774834,190.163849 74.075577,189.371582  z"/>
<path fill="#D8B98F" opacity="1.000000" stroke="none" d=" M79.046143,191.292450   C79.039299,190.807098 79.049843,190.605316 79.091682,190.102219   C79.457825,190.628510 79.792679,191.456116 80.007416,192.633438   C79.612709,192.514114 79.338120,192.045074 79.046143,191.292450  z"/>
<path fill="#CBB491" opacity="1.000000" stroke="none" d=" M79.462769,185.814011   C78.926231,186.038406 78.740761,186.035583 78.278259,186.006851   C78.000664,181.535538 78.000107,177.090103 77.999985,172.233597   C79.059219,172.636414 80.118019,173.450302 81.201569,174.625412   C80.755493,178.520020 80.284668,182.053406 79.462769,185.814011  z"/>
<path fill="#121516" opacity="1.000000" stroke="none" d=" M47.416451,190.977966   C47.498592,190.119247 47.920227,189.203964 48.618309,188.140106   C48.515152,188.968140 48.135548,189.944778 47.416451,190.977966  z"/>
<path fill="#121516" opacity="1.000000" stroke="none" d=" M49.240784,187.927765   C49.273869,187.819092 49.558567,187.740829 49.920013,187.835617   C49.828636,187.991837 49.660515,187.975021 49.240784,187.927765  z"/>
<path fill="#D1B181" opacity="1.000000" stroke="none" d=" M80.861732,153.701324   C74.931915,152.256470 69.024429,150.710007 63.064995,149.399872   C58.539127,148.404922 57.190338,145.253372 56.976006,141.207764   C56.617702,134.444702 56.320728,127.678360 56.265457,120.462601   C56.532974,120.011795 56.925713,120.028267 56.986748,120.395737   C58.831493,124.815086 60.231876,129.095383 62.481041,132.869888   C66.775162,140.076218 73.820412,144.203995 81.148056,148.366928   C81.149796,150.365540 81.005768,152.033432 80.861732,153.701324  z"/>
<path fill="#F5E7CD" opacity="1.000000" stroke="none" d=" M118.622543,91.550484   C118.502991,91.962364 118.545235,91.969780 118.385056,91.635223   C116.423454,90.886322 114.622025,90.471977 113.115814,89.858742   C114.024834,87.112465 114.638641,84.565079 115.158218,81.723068   C114.726051,80.929459 114.388115,80.430466 114.113037,79.565079   C117.040848,74.904907 116.666199,71.229576 113.013824,67.679916   C112.681190,66.914169 112.366669,66.444672 112.004532,65.654968   C111.326508,64.845650 110.696091,64.356537 110.070786,63.505398   C110.019852,62.421883 109.963791,61.700390 109.905342,60.665573   C109.262672,59.617641 108.622398,58.883030 107.826805,57.884773   C107.112091,57.416603 106.552689,57.212078 105.879211,56.767097   C105.269806,56.071129 104.774490,55.615623 104.517052,55.040382   C105.523338,53.968891 106.291748,53.017136 107.060150,52.065384   C107.587715,51.094063 108.115273,50.122746 109.100815,48.308216   C114.389847,55.650623 119.983398,62.154171 121.177376,71.579071   C120.413063,78.366661 119.577576,84.752632 118.622543,91.550484  z"/>
<path fill="#E9CA94" opacity="1.000000" stroke="none" d=" M97.967712,145.631134   C100.691475,145.079834 103.415237,144.528519 106.892509,143.976532   C108.133034,143.935715 108.620056,143.895584 109.107071,143.855438   C113.590675,143.481735 115.770958,144.351562 114.240379,149.856934   C113.172554,153.697769 114.034798,158.075211 113.614029,162.537170   C112.763931,161.619598 112.334709,160.377808 112.209702,158.831161   C113.015541,154.395950 113.953957,150.214981 111.093933,145.121475   C110.417305,147.313553 110.117226,148.285706 109.445229,149.191864   C102.025925,150.120102 98.883629,154.410202 100.804672,160.501709   C99.387390,162.896942 98.126961,164.991135 96.866531,167.085342   C95.325798,166.620651 93.785065,166.155945 92.111282,164.900711   C91.965401,161.737579 91.952576,159.364960 91.939743,156.992355   C92.047897,156.569519 92.156044,156.146698 92.433907,155.191193   C92.682472,154.098267 92.761314,153.538040 92.840164,152.977798   C93.721275,150.603088 91.586952,146.665024 96.926834,146.126740   C97.684227,145.857498 97.825974,145.744308 97.967712,145.631134  M96.170334,150.019257   C92.807793,152.746399 93.066620,160.477432 97.003128,163.355225   C97.003128,158.718430 97.003128,154.360474 97.282257,149.893402   C97.187325,149.927917 97.092392,149.962433 96.170334,150.019257  z"/>
<path fill="#DABC8D" opacity="1.000000" stroke="none" d=" M106.719742,52.161743   C106.291748,53.017136 105.523338,53.968891 104.111824,54.990044   C102.667282,55.016163 101.865852,54.972881 100.878571,54.703110   C98.463181,53.847530 95.579674,52.014713 94.122078,52.806572   C88.976349,55.602066 85.202599,53.428871 81.546547,50.458714   C73.539444,43.953793 63.197102,45.350880 60.756134,53.982769   C59.316936,59.072140 59.658569,64.718246 59.566067,70.120255   C59.474812,75.449585 61.844170,80.830452 59.083633,86.047806   C59.006729,85.993629 58.854923,85.882484 58.854923,85.882484   C58.519684,77.975281 58.036018,70.070328 57.915901,62.159866   C57.861191,58.556950 58.500847,54.940662 58.869381,51.334923   C59.260017,47.512897 67.762146,42.427837 72.215508,43.939461   C76.693069,45.459301 80.854485,47.910580 85.730377,50.299530   C88.341927,51.252525 90.597351,54.196743 92.189781,50.091995   C92.189781,50.091995 92.635368,49.893375 93.176529,49.792900   C94.481888,49.747570 95.246078,49.802708 96.010269,49.857849   C99.406693,50.916824 101.837608,56.146748 106.719742,52.161743  z"/>
<path fill="#ECCE93" opacity="1.000000" stroke="none" d=" M47.073936,129.776901   C44.950249,126.995476 42.032227,124.510239 40.862465,121.373116   C38.133644,114.054817 36.245430,106.423080 34.065811,98.484283   C34.908237,98.043205 35.701565,98.036148 36.846497,98.419197   C37.322697,98.901039 37.447292,98.992775 37.571888,99.084511   C37.402824,98.836182 37.233761,98.587860 37.064697,98.339531   C37.369244,98.233688 37.673794,98.127853 38.471153,98.544113   C39.519085,101.576805 37.497772,105.225441 42.363811,106.147766   C41.224628,110.381409 39.795223,114.453682 42.113510,119.051422   C43.030167,123.252800 46.579990,122.904030 49.301186,123.887062   C49.780376,125.000061 50.259571,126.113068 50.412170,127.658493   C49.720497,128.720673 49.355415,129.350433 48.668602,129.970413   C47.922558,129.899368 47.498249,129.838135 47.073936,129.776901  z"/>
<path fill="#EFDFC0" opacity="1.000000" stroke="none" d=" M107.052887,104.902580   C109.660500,105.532341 110.729622,107.344589 111.411972,109.836990   C112.857895,115.118492 114.765991,120.276436 116.120110,125.578125   C116.482010,126.995071 115.808098,128.888611 115.097809,130.306992   C114.405106,131.690262 113.057510,132.745575 111.996490,134.283478   C111.566330,134.684235 111.137108,134.746368 110.326546,134.434280   C108.523613,133.602676 107.106010,132.799042 105.679329,132.782608   C104.168144,132.765198 102.648338,133.496307 101.251572,133.574402   C101.636429,131.881439 101.902023,130.514572 102.379517,129.083527   C102.591415,129.019333 103.027313,128.941299 103.298752,128.871826   C104.047119,128.513947 104.524055,128.225540 105.076439,128.320374   C108.218239,131.061218 110.983246,130.286835 114.265038,127.802071   C112.752518,125.681114 111.411621,123.800827 110.057358,121.517044   C109.350060,117.745628 108.656128,114.377701 107.974945,110.642609   C107.646103,109.186745 107.304520,108.098045 106.953064,106.677757   C106.895294,105.906448 106.847397,105.466736 106.864883,105.000061   C106.930267,104.973099 107.052887,104.902580 107.052887,104.902580  z"/>
<path fill="#C8AA7D" opacity="1.000000" stroke="none" d=" M97.086655,167.358948   C98.126961,164.991135 99.387390,162.896942 101.180008,160.428284   C104.118111,159.351349 106.524033,158.648880 109.235176,158.053619   C110.328758,158.485870 111.117119,158.810944 111.905487,159.136002   C112.334709,160.377808 112.763931,161.619598 113.537277,162.918579   C111.455307,164.629929 108.914024,166.140503 106.630531,167.972412   C103.329849,170.620346 100.337967,169.790131 97.086655,167.358948  M102.578545,161.526413   C102.578545,161.526413 102.466125,161.593094 102.578545,161.526413  z"/>
<path fill="#3F2914" opacity="1.000000" stroke="none" d=" M42.133904,118.700577   C39.795223,114.453682 41.224628,110.381409 42.447426,105.812958   C43.639912,106.129410 45.108757,106.917969 46.541187,107.767914   C47.719185,108.466896 48.853962,109.238731 50.007896,109.978279   C50.283688,112.145020 53.014275,114.819031 48.086704,115.822006   C46.457062,114.303673 45.494278,113.011658 44.600052,111.811653   C43.535984,114.784019 42.834946,116.742302 42.133904,118.700577  z"/>
<path fill="#D9BF90" opacity="1.000000" stroke="none" d=" M101.132294,133.900497   C102.648338,133.496307 104.168144,132.765198 105.679329,132.782608   C107.106010,132.799042 108.523613,133.602676 110.000732,134.401993   C109.715408,135.593536 109.374565,136.443130 108.646515,137.791382   C106.448059,138.161407 104.636818,138.032776 102.825577,137.904144   C100.119514,138.556091 97.413452,139.208023 94.051453,139.953156   C92.900124,140.331390 92.404739,140.616425 91.909348,140.901474   C91.909355,140.901474 92.004990,140.951645 91.648926,140.904831   C90.882439,140.888336 90.472023,140.918655 90.109146,140.589386   C91.659538,139.499222 93.155243,138.170853 94.666603,138.152802   C98.817612,138.103195 99.227448,136.162079 97.997192,132.609924   C98.310593,131.543335 98.618050,130.799454 98.950287,130.381531   C99.694145,131.771820 100.413223,132.836166 101.132294,133.900497  z"/>
<path fill="#DABC8D" opacity="1.000000" stroke="none" d=" M56.925713,120.028267   C56.925713,120.028267 56.532974,120.011795 56.336842,119.999023   C55.878326,110.771919 55.434711,101.556396 55.495445,92.344200   C55.508739,90.327042 57.319283,88.321732 58.578533,86.096725   C58.854923,85.882484 59.006729,85.993629 59.031334,86.444992   C58.357197,92.173935 57.368168,97.433456 57.038181,102.734001   C56.680538,108.478828 56.937042,114.261887 56.925713,120.028267  z"/>
<path fill="#D6BB8C" opacity="1.000000" stroke="none" d=" M42.113510,119.051422   C42.834946,116.742302 43.535984,114.784019 44.600052,111.811653   C45.494278,113.011658 46.457062,114.303673 47.722542,115.794006   C48.480469,118.368263 48.935703,120.744209 49.346062,123.503601   C46.579990,122.904030 43.030167,123.252800 42.113510,119.051422  z"/>
<path fill="#DBC59E" opacity="1.000000" stroke="none" d=" M50.032188,109.620895   C48.853962,109.238731 47.719185,108.466896 46.541187,107.767914   C45.108757,106.917969 43.639912,106.129410 42.103210,105.649094   C37.497772,105.225441 39.519085,101.576805 38.952065,98.595253   C42.645603,101.837372 46.351040,105.550446 50.032188,109.620895  z"/>
<path fill="#CFB180" opacity="1.000000" stroke="none" d=" M81.211655,153.864319   C81.005768,152.033432 81.149796,150.365540 81.397461,148.343109   C81.667633,147.975891 81.834167,147.963211 82.334183,147.973358   C83.113312,147.999283 83.558960,148.002396 84.362137,148.012283   C85.889809,147.344727 87.059944,146.670410 88.265831,146.329529   C88.261673,147.105499 88.221771,147.548019 88.181854,147.990524   C87.629234,149.963089 87.076614,151.935654 86.490631,154.027298   C84.737839,154.027298 83.149704,154.027298 81.211655,153.864319  z"/>
<path fill="#03020C" opacity="1.000000" stroke="none" d=" M100.697662,49.323120   C99.504906,48.216034 98.646957,47.277557 97.789017,46.339081   C98.191139,45.797344 98.593269,45.255608 98.995399,44.713867   C100.583961,45.730011 102.172523,46.746155 103.761086,47.762302   C102.851555,48.338779 101.942017,48.915257 100.697662,49.323120  z"/>
<path fill="#1C0C08" opacity="1.000000" stroke="none" d=" M91.598724,157.058563   C91.952576,159.364960 91.965401,161.737579 91.954300,164.555588   C88.306656,162.665924 88.761803,159.982498 91.598724,157.058563  z"/>
<path fill="#1B110C" opacity="1.000000" stroke="none" d=" M88.472702,147.819885   C88.221771,147.548019 88.261673,147.105499 88.419167,146.026932   C89.045044,143.910233 89.553329,142.429611 90.061615,140.948975   C90.472023,140.918655 90.882439,140.888336 91.602036,140.872986   C90.862000,143.141724 89.812775,145.395477 88.472702,147.819885  z"/>
<path fill="#1B110C" opacity="1.000000" stroke="none" d=" M103.133095,138.056458   C104.636818,138.032776 106.448059,138.161407 108.636520,138.161865   C109.014374,138.487152 109.014999,138.940613 108.668571,139.680206   C107.887329,139.979477 107.453140,139.992584 107.018951,140.005692   C105.826172,139.406708 104.633392,138.807739 103.133095,138.056458  z"/>
<path fill="#5E5041" opacity="1.000000" stroke="none" d=" M107.023018,140.392136   C107.453140,139.992584 107.887329,139.979477 108.643158,140.019608   C109.053375,141.144516 109.141953,142.216187 109.168800,143.571655   C108.620056,143.895584 108.133034,143.935715 107.282990,143.921005   C106.955666,142.836960 106.991371,141.807770 107.023018,140.392136  z"/>
<path fill="#24140B" opacity="1.000000" stroke="none" d=" M91.736526,50.070915   C90.597351,54.196743 88.341927,51.252525 86.070450,50.360252   C87.650810,50.066704 89.467049,50.058270 91.736526,50.070915  z"/>
<path fill="#D6BB8C" opacity="1.000000" stroke="none" d=" M48.990334,129.980209   C49.355415,129.350433 49.720497,128.720673 50.369026,128.027954   C50.416096,128.816742 50.179714,129.668488 49.661270,130.610382   C49.379208,130.700531 49.377243,130.740280 49.289330,130.538239   C49.201412,130.336197 48.990337,129.980209 48.990334,129.980209  z"/>
<path fill="#24140B" opacity="1.000000" stroke="none" d=" M95.872375,49.604393   C95.246078,49.802708 94.481888,49.747570 93.341187,49.612934   C93.887939,49.472607 94.811203,49.411774 95.872375,49.604393  z"/>
<path fill="#1C0C08" opacity="1.000000" stroke="none" d=" M92.550728,153.027985   C92.761314,153.538040 92.682472,154.098267 92.398010,154.864563   C92.215370,154.406448 92.238335,153.742310 92.550728,153.027985  z"/>
<path fill="#1B110C" opacity="1.000000" stroke="none" d=" M92.206573,140.932983   C92.404739,140.616425 92.900124,140.331390 93.695023,140.092285   C93.497635,140.413651 93.000717,140.689056 92.206573,140.932983  z"/>
<path fill="#1B110C" opacity="1.000000" stroke="none" d=" M97.845169,145.512939   C97.825974,145.744308 97.684227,145.857498 97.271881,145.942398   C97.241730,145.740982 97.482178,145.567856 97.845169,145.512939  z"/>
<path fill="#FDFDFD" opacity="1.000000" stroke="none" d=" M93.339874,16.706413   C93.369156,16.947107 93.178688,17.377499 92.845406,17.553715   C92.841766,17.165066 92.980942,17.030588 93.339874,16.706413  z"/>
<path fill="#DBC59E" opacity="1.000000" stroke="none" d=" M37.051849,98.362366   C37.233761,98.587860 37.402824,98.836182 37.571888,99.084511   C37.447292,98.992775 37.322697,98.901039 37.091541,98.588867   C36.984982,98.368431 37.039005,98.385201 37.051849,98.362366  z"/>
<path fill="#EFDFC0" opacity="1.000000" stroke="none" d=" M107.477600,96.043442   C108.211037,97.137947 108.944481,98.232445 109.508507,99.677048   C109.030319,100.459976 108.721542,100.892807 108.412766,101.325638   C109.247574,101.596924 110.082397,101.868210 110.917213,102.139503   C109.862801,102.460983 108.808395,102.782463 107.140190,102.888367   C106.014786,101.449852 105.503181,100.226921 104.959122,98.657913   C104.619476,97.203575 104.312294,96.095329 104.337288,94.956955   C105.728828,94.629883 106.788185,94.332924 107.871490,94.381828   C107.756157,95.166283 107.616875,95.604858 107.477600,96.043442  z"/>
<path fill="#F2D49F" opacity="1.000000" stroke="none" d=" M104.991570,99.003990   C105.503181,100.226921 106.014786,101.449852 106.789482,102.905838   C107.045341,103.531174 107.038116,103.923462 107.041885,104.609161   C107.052887,104.902580 106.930267,104.973099 106.542374,104.920349   C105.766846,102.913071 105.379204,100.958527 104.991570,99.003990  z"/>
<path fill="#C0BAB6" opacity="1.000000" stroke="none" d=" M111.164795,102.093735   C110.082397,101.868210 109.247574,101.596924 108.412766,101.325638   C108.721542,100.892807 109.030319,100.459976 109.653679,99.932999   C110.432945,100.212166 110.897621,100.585495 111.675995,100.952896   C111.797241,101.313972 111.604805,101.680969 111.164795,102.093735  z"/>
<path fill="#060505" opacity="1.000000" stroke="none" d=" M48.668602,129.970413   C48.990337,129.980209 49.201412,130.336197 49.272202,130.530258   C48.693314,130.611816 48.043636,130.499313 47.233948,130.081848   C47.498249,129.838135 47.922558,129.899368 48.668602,129.970413  z"/>
<path fill="#4B3B26" opacity="1.000000" stroke="none" d=" M107.847260,96.008713   C107.616875,95.604858 107.756157,95.166283 107.977684,94.192261   C108.201431,93.408936 108.319496,93.150360 108.518005,92.791786   C108.621880,92.702477 108.717064,92.445572 108.995476,92.338531   C110.048706,91.519844 110.823524,90.808197 111.798233,90.161407   C112.272163,90.169479 112.546318,90.113266 112.820595,90.057640   C114.622025,90.471977 116.423454,90.886322 118.394798,91.653412   C115.115448,93.328766 111.666183,94.651375 107.847260,96.008713  z"/>
<path fill="#FCD084" opacity="1.000000" stroke="none" d=" M104.959122,98.657913   C105.379204,100.958527 105.766846,102.913071 106.476990,104.947311   C106.847397,105.466736 106.895294,105.906448 106.696609,106.901764   C106.954094,108.641502 107.458145,109.825638 107.962204,111.009781   C108.656128,114.377701 109.350060,117.745628 110.033508,121.912491   C110.023033,124.127678 110.023033,125.543922 110.023033,126.538452   C108.227432,125.648521 106.583389,124.833702 104.684219,123.798096   C103.885201,122.838989 103.340317,121.462952 102.797569,121.463791   C98.664818,121.470177 96.237968,124.399857 94.517937,127.515198   C92.758705,130.701569 96.148651,131.532455 97.991249,132.932663   C99.227448,136.162079 98.817612,138.103195 94.666603,138.152802   C93.155243,138.170853 91.659538,139.499222 90.109154,140.589386   C89.553329,142.429611 89.045044,143.910233 88.383423,145.693481   C87.059944,146.670410 85.889809,147.344727 84.403923,147.638916   C84.489014,145.340714 84.889854,143.422684 85.290695,141.504639   C83.290535,141.504639 81.290375,141.504639 78.627518,141.504639   C80.229401,144.565735 81.115051,146.258133 82.000694,147.950546   C81.834167,147.963211 81.667633,147.975891 81.251701,148.012390   C73.820412,144.203995 66.775162,140.076218 62.481041,132.869888   C60.231876,129.095383 58.831493,124.815086 56.986748,120.395737   C56.937042,114.261887 56.680538,108.478828 57.038181,102.734001   C57.368168,97.433456 58.357197,92.173935 59.108242,86.499161   C61.844170,80.830452 59.474812,75.449585 59.566067,70.120255   C59.658569,64.718246 59.316936,59.072140 60.756134,53.982769   C63.197102,45.350880 73.539444,43.953793 81.546547,50.458714   C85.202599,53.428871 88.976349,55.602066 94.122078,52.806572   C95.579674,52.014713 98.463181,53.847530 100.995949,55.011703   C102.863876,56.033714 104.428581,56.520634 105.993294,57.007553   C106.552689,57.212078 107.112091,57.416603 107.839783,58.215614   C108.641296,59.533039 109.274513,60.255970 109.907738,60.978897   C109.963791,61.700390 110.019852,62.421883 110.084961,63.846413   C110.746719,65.024689 111.399429,65.499931 112.052139,65.975174   C112.366669,66.444672 112.681190,66.914169 113.046593,68.062416   C113.554642,70.971169 114.011818,73.201187 114.657974,76.352982   C110.453644,76.936630 106.629257,77.597862 102.776947,77.970116   C97.683075,78.462349 92.529503,78.472496 87.479881,79.219231   C85.500328,79.511971 83.732651,81.237495 81.868484,82.310486   C82.059082,82.839432 82.249680,83.368370 82.440285,83.897308   C86.398003,84.466194 90.355728,85.035072 94.659668,85.653717   C94.789886,84.312149 94.897697,83.201424 95.244797,81.966591   C95.836197,81.815285 96.188324,81.788094 96.953918,81.832443   C98.720360,82.086899 100.073311,82.269814 102.200233,82.557365   C100.442009,83.725182 99.431007,84.396690 98.695381,84.885300   C100.950897,86.728096 102.972588,88.379852 104.700714,90.169174   C104.273140,91.866859 104.139122,93.426964 104.005112,94.987076   C104.312294,96.095329 104.619476,97.203575 104.959122,98.657913  M87.290535,100.666229   C89.835609,101.419304 92.380676,102.172379 95.732109,102.962875   C96.987564,102.834045 98.243011,102.705215 99.688370,102.556908   C99.229317,100.128052 99.178253,97.895958 98.344803,96.009544   C97.539673,94.187210 96.232140,91.872437 94.602676,91.288704   C91.852165,90.303375 88.673302,90.513763 84.957077,90.110397   C83.528145,89.936798 81.835625,89.212402 80.740562,89.736450   C79.518539,90.321266 78.839188,92.040070 78.135971,93.937981   C79.646545,94.549469 81.157112,95.160965 82.900299,95.866615   C81.145340,97.824196 79.705185,99.430611 77.804634,101.550598   C81.533890,101.706154 85.280708,107.633263 87.290535,100.666229  M84.104065,115.540100   C89.778305,116.147385 93.484283,113.150719 97.536049,108.516129   C90.055580,108.516129 83.670815,108.516129 77.286041,108.516129   C76.998383,109.026863 76.710724,109.537598 76.423065,110.048332   C78.746162,111.781570 81.069267,113.514809 84.104065,115.540100  M74.781807,93.590576   C74.642624,94.547920 74.503448,95.505264 74.364265,96.462616   C74.823074,96.445282 75.281883,96.427956 75.740692,96.410629   C75.639282,95.445343 75.537872,94.480049 74.781807,93.590576  z"/>
<path fill="#EFCA8C" opacity="1.000000" stroke="none" d=" M104.994278,90.031609   C102.972588,88.379852 100.950897,86.728096 98.695381,84.885300   C99.431007,84.396690 100.442009,83.725182 102.200233,82.557365   C100.073311,82.269814 98.720360,82.086899 97.357605,81.647614   C103.316017,81.600060 109.284233,81.808876 115.252441,82.017700   C114.638641,84.565079 114.024834,87.112465 113.115814,89.858742   C112.546318,90.113266 112.272163,90.169479 111.366226,90.140671   C110.061905,90.851898 109.389481,91.648735 108.717064,92.445572   C108.717064,92.445572 108.621880,92.702477 108.300781,92.516960   C106.984543,91.564827 105.989410,90.798218 104.994278,90.031609  z"/>
<path fill="#EFCA8C" opacity="1.000000" stroke="none" d=" M95.005508,82.090698   C94.897697,83.201424 94.789886,84.312149 94.659668,85.653717   C90.355728,85.035072 86.398003,84.466194 82.440285,83.897308   C82.249680,83.368370 82.059082,82.839432 81.868484,82.310486   C83.732651,81.237495 85.500328,79.511971 87.479881,79.219231   C92.529503,78.472496 97.683075,78.462349 102.776947,77.970116   C106.629257,77.597862 110.453644,76.936630 114.657974,76.352982   C114.011818,73.201187 113.554642,70.971169 113.064697,68.358658   C116.666199,71.229576 117.040848,74.904907 113.640137,79.594055   C104.884628,80.162605 96.664886,80.335800 88.445152,80.508995   C88.466515,81.154594 88.487885,81.800186 88.509247,82.445778   C90.674667,82.327423 92.840088,82.209061 95.005508,82.090698  z"/>
<path fill="#3A2009" opacity="1.000000" stroke="none" d=" M95.244797,81.966591   C92.840088,82.209061 90.674667,82.327423 88.509247,82.445778   C88.487885,81.800186 88.466515,81.154594 88.445152,80.508995   C96.664886,80.335800 104.884628,80.162605 113.577271,79.960449   C114.388115,80.430466 114.726051,80.929459 115.158218,81.723068   C109.284233,81.808876 103.316017,81.600060 96.944122,81.576065   C96.188324,81.788094 95.836197,81.815285 95.244797,81.966591  z"/>
<path fill="#EFCA8C" opacity="1.000000" stroke="none" d=" M105.879211,56.767097   C104.428581,56.520634 102.863876,56.033714 101.181793,55.238197   C101.865852,54.972881 102.667282,55.016163 103.873947,55.109779   C104.774490,55.615623 105.269806,56.071129 105.879211,56.767097  z"/>
<path fill="#EFCA8C" opacity="1.000000" stroke="none" d=" M109.905342,60.665573   C109.274513,60.255970 108.641296,59.533039 107.995102,58.479263   C108.622398,58.883030 109.262672,59.617641 109.905342,60.665573  z"/>
<path fill="#EFCA8C" opacity="1.000000" stroke="none" d=" M112.004532,65.654968   C111.399429,65.499931 110.746719,65.024689 110.079834,64.208435   C110.696091,64.356537 111.326508,64.845650 112.004532,65.654968  z"/>
<path fill="#180D05" opacity="1.000000" stroke="none" d=" M108.929947,157.946442   C106.524033,158.648880 104.118111,159.351349 101.336861,160.127228   C98.883629,154.410202 102.025925,150.120102 109.388199,149.403488   C109.607841,149.968796 109.608109,150.256409 109.494614,150.886841   C109.341011,152.814987 109.396683,154.400223 109.394882,156.319702   C109.201599,157.084778 109.065773,157.515610 108.929947,157.946442  z"/>
<path fill="#FCD080" opacity="1.000000" stroke="none" d=" M97.003128,150.002518   C97.003128,154.360474 97.003128,158.718430 97.003128,163.355225   C93.066620,160.477432 92.807793,152.746399 96.585167,150.009628   C97.000000,150.000000 97.003128,150.002518 97.003128,150.002518  z"/>
<path fill="#FBD185" opacity="1.000000" stroke="none" d=" M109.235168,158.053619   C109.065773,157.515610 109.201599,157.084778 109.599136,155.985092   C109.808533,153.725464 109.756210,152.134689 109.703880,150.543915   C109.608109,150.256409 109.607841,149.968796 109.760117,149.469482   C110.117226,148.285706 110.417305,147.313553 111.093933,145.121475   C113.953957,150.214981 113.015541,154.395950 112.209702,158.831161   C111.117119,158.810944 110.328758,158.485870 109.235168,158.053619  z"/>
<path fill="#FCD080" opacity="1.000000" stroke="none" d=" M96.998734,149.998474   C97.092392,149.962433 97.187325,149.927917 97.142693,149.947968   C97.003128,150.002518 97.000000,150.000000 96.998734,149.998474  z"/>
<path fill="#CFB07B" opacity="1.000000" stroke="none" d=" M97.997192,132.609924   C96.148651,131.532455 92.758705,130.701569 94.517937,127.515198   C96.237968,124.399857 98.664818,121.470177 102.797569,121.463791   C103.340317,121.462952 103.885201,122.838989 104.685837,124.106186   C104.962059,125.735756 104.981522,126.836441 105.000992,127.937134   C104.524055,128.225540 104.047119,128.513947 103.289185,128.599915   C102.678619,127.929611 102.349060,127.461731 101.746384,126.993813   C101.291374,127.001656 101.109474,127.009544 100.610031,127.054962   C99.860268,127.743843 99.428040,128.395187 98.986290,129.299347   C98.959686,129.719971 98.942596,129.887772 98.925507,130.055588   C98.618050,130.799454 98.310593,131.543335 97.997192,132.609924  z"/>
<path fill="#F9D498" opacity="1.000000" stroke="none" d=" M105.076439,128.320374   C104.981522,126.836441 104.962059,125.735756 104.940971,124.326981   C106.583389,124.833702 108.227432,125.648521 110.023033,126.538452   C110.023033,125.543922 110.023033,124.127678 110.046883,122.315994   C111.411621,123.800827 112.752518,125.681114 114.265038,127.802071   C110.983246,130.286835 108.218239,131.061218 105.076439,128.320374  z"/>
<path fill="#B8A782" opacity="1.000000" stroke="none" d=" M100.927567,127.017426   C101.109474,127.009544 101.291374,127.001656 101.763779,127.352966   C102.092064,128.190674 102.129837,128.669189 102.167610,129.147705   C101.902023,130.514572 101.636429,131.881439 101.251572,133.574402   C100.413223,132.836166 99.694145,131.771820 98.950287,130.381531   C98.942596,129.887772 98.959686,129.719971 99.243256,129.165955   C99.982353,128.192307 100.454964,127.604866 100.927567,127.017426  z"/>
<path fill="#F2D49F" opacity="1.000000" stroke="none" d=" M107.974945,110.642609   C107.458145,109.825638 106.954094,108.641502 106.706482,107.233353   C107.304520,108.098045 107.646103,109.186745 107.974945,110.642609  z"/>
<path fill="#D9BF90" opacity="1.000000" stroke="none" d=" M102.379517,129.083527   C102.129837,128.669189 102.092064,128.190674 102.036896,127.353004   C102.349060,127.461731 102.678619,127.929611 103.017746,128.669403   C103.027313,128.941299 102.591415,129.019333 102.379517,129.083527  z"/>
<path fill="#E9CA94" opacity="1.000000" stroke="none" d=" M102.522339,161.559753   C102.466125,161.593094 102.578545,161.526413 102.522339,161.559753  z"/>
<path fill="#FED37A" opacity="1.000000" stroke="none" d=" M82.334183,147.973358   C81.115051,146.258133 80.229401,144.565735 78.627518,141.504639   C81.290375,141.504639 83.290535,141.504639 85.290695,141.504639   C84.889854,143.422684 84.489014,145.340714 84.046387,147.632141   C83.558960,148.002396 83.113312,147.999283 82.334183,147.973358  z"/>
<path fill="#F2D49F" opacity="1.000000" stroke="none" d=" M104.700714,90.169174   C105.989410,90.798218 106.984543,91.564827 108.196899,92.606270   C108.319496,93.150360 108.201431,93.408936 107.953743,93.846390   C106.788185,94.332924 105.728828,94.629883 104.337288,94.956955   C104.139122,93.426964 104.273140,91.866859 104.700714,90.169174  z"/>
<path fill="#F2D49F" opacity="1.000000" stroke="none" d=" M108.995476,92.338531   C109.389481,91.648735 110.061905,90.851898 111.166336,90.075806   C110.823524,90.808197 110.048706,91.519844 108.995476,92.338531  z"/>
<path fill="#BFA97A" opacity="1.000000" stroke="none" d=" M85.674576,90.221321   C88.673302,90.513763 91.852165,90.303375 94.602676,91.288704   C96.232140,91.872437 97.539673,94.187210 98.344803,96.009544   C99.178253,97.895958 99.229317,100.128052 99.688370,102.556908   C98.243011,102.705215 96.987564,102.834045 95.384247,102.502716   C95.036377,100.473068 95.036377,98.903572 95.036377,96.616447   C92.097496,98.432106 87.566078,93.838531 86.796127,100.071602   C85.280708,107.633263 81.533890,101.706154 77.804634,101.550598   C79.705185,99.430611 81.145340,97.824196 82.900299,95.866615   C81.157112,95.160965 79.646545,94.549469 78.439743,93.502411   C81.380203,93.271217 84.016884,93.475594 87.019913,93.708366   C86.457710,92.251167 86.066147,91.236244 85.674576,90.221321  z"/>
<path fill="#DCB77B" opacity="1.000000" stroke="none" d=" M83.748215,115.394073   C81.069267,113.514809 78.746162,111.781570 76.423065,110.048332   C76.710724,109.537598 76.998383,109.026863 77.286041,108.516129   C83.670815,108.516129 90.055580,108.516129 97.536049,108.516129   C93.484283,113.150719 89.778305,116.147385 83.748215,115.394073  z"/>
<path fill="#1B1613" opacity="1.000000" stroke="none" d=" M87.043335,100.368912   C87.566078,93.838531 92.097496,98.432106 95.036377,96.616447   C95.036377,98.903572 95.036377,100.473068 94.981064,102.484009   C92.380676,102.172379 89.835609,101.419304 87.043335,100.368912  z"/>
<path fill="#37291F" opacity="1.000000" stroke="none" d=" M85.315826,90.165863   C86.066147,91.236244 86.457710,92.251167 87.019913,93.708366   C84.016884,93.475594 81.380203,93.271217 78.333580,93.166077   C78.839188,92.040070 79.518539,90.321266 80.740562,89.736450   C81.835625,89.212402 83.528145,89.936798 85.315826,90.165863  z"/>
<path fill="#BFA97A" opacity="1.000000" stroke="none" d=" M75.109131,93.552673   C75.537872,94.480049 75.639282,95.445343 75.740692,96.410629   C75.281883,96.427956 74.823074,96.445282 74.364265,96.462616   C74.503448,95.505264 74.642624,94.547920 75.109131,93.552673  z"/>
<path fill="#C8AA7D" opacity="1.000000" stroke="none" d=" M109.494614,150.886841   C109.756210,152.134689 109.808533,153.725464 109.656601,155.650848   C109.396683,154.400223 109.341011,152.814987 109.494614,150.886841  z"/>
<path fill="#D9BF90" opacity="1.000000" stroke="none" d=" M100.610031,127.054962   C100.454964,127.604866 99.982353,128.192307 99.252777,128.913132   C99.428040,128.395187 99.860268,127.743843 100.610031,127.054962  z"/>
</svg>